<?xml version="1.0" encoding="utf-8"?>
<!-- Generator: Adobe Illustrator 23.0.4, SVG Export Plug-In . SVG Version: 6.00 Build 0)  -->
<svg version="1.1" id="Layer_1" xmlns="http://www.w3.org/2000/svg" xmlns:xlink="http://www.w3.org/1999/xlink" x="0px" y="0px"
	 viewBox="0 0 638 170" style="enable-background:new 0 0 638 170;" xml:space="preserve">
<style type="text/css">
	.st0{fill:#E25D25;}
</style>
<g>
	<g id="XMLID_1384_">
		<g>
			<g>
				<g id="XMLID_398_">
					<path id="XMLID_407_" class="st0" d="M569.5,18.6c-0.3-0.2-1.3-0.2-1.6,0c-1.4,1.1-2.9,4.1-3.8,6.6c-0.2,0.7,2.2,0.7,2.5,0
						c0.6-1.6,1.3-3,2.2-4.5c0.9,1.5,1.6,2.9,2.2,4.5c0.2,0.7,2.7,0.7,2.5,0C572.4,22.8,570.9,19.8,569.5,18.6"/>
					<path id="XMLID_404_" class="st0" d="M567.3,70.3c2.2-1.2,3.8-3.6,5.1-6.6c0.6-1.6-1.6-4.2-2.4-2.8c-1.4,2.4-2.6,3.6-4.6,4.7
						C564,66.4,565.8,71.2,567.3,70.3"/>
					<path id="XMLID_402_" class="st0" d="M616.1,20l-2.9,0.9v-3c0-1.1-2.3-1.1-2.3,0v3L608,20c-1-0.3-1.7,1.8-0.7,2.1l2.9,0.9
						l-1.8,2.4c-0.6,0.9,1.2,2.2,1.8,1.3l1.8-2.4l1.8,2.4c0.6,0.9,2.5-0.5,1.8-1.3l-1.8-2.4l2.9-0.9C617.8,21.8,617.2,19.7,616.1,20
						"/>
					<path id="XMLID_400_" class="st0" d="M612.9,62c-0.3-0.2-1.3-0.2-1.6,0c-1.4,1.1-2.9,4.1-3.8,6.6c-0.2,0.7,2.2,0.7,2.5,0
						c0.6-1.6,1.3-3,2.2-4.5c0.9,1.5,1.6,2.9,2.2,4.5c0.2,0.7,2.7,0.7,2.5,0C615.8,66.1,614.3,63.1,612.9,62"/>
				</g>
			</g>
			<g>
				<g id="XMLID_387_">
					<path id="XMLID_396_" class="st0" d="M569.5,144.5c-0.3-0.2-1.3-0.2-1.6,0c-1.4,1.1-2.9,4.1-3.8,6.6c-0.2,0.7,2.2,0.7,2.5,0
						c0.6-1.6,1.3-3,2.2-4.5c0.9,1.5,1.6,2.9,2.2,4.5c0.2,0.7,2.7,0.7,2.5,0C572.4,148.7,570.9,145.7,569.5,144.5"/>
					<path id="XMLID_395_" class="st0" d="M610.6,109.5c2.2-1.2,3.8-3.6,5.1-6.6c0.6-1.6-1.6-4.2-2.4-2.8c-1.4,2.4-2.6,3.6-4.6,4.7
						C607.3,105.6,609.1,110.4,610.6,109.5"/>
					<path id="XMLID_394_" class="st0" d="M572.8,102.6l-2.9,0.9v-3c0-1.1-2.3-1.1-2.3,0v3l-2.9-0.9c-1-0.3-1.7,1.8-0.7,2.1l2.9,0.9
						l-1.8,2.4c-0.6,0.9,1.2,2.2,1.8,1.3l1.8-2.4l1.8,2.4c0.6,0.9,2.5-0.5,1.8-1.3l-1.8-2.4l2.9-0.9
						C574.5,104.4,573.8,102.2,572.8,102.6"/>
					<path id="XMLID_391_" class="st0" d="M616.1,145.9l-2.9,0.9v-3c0-1.1-2.3-1.1-2.3,0v3l-2.9-0.9c-1-0.3-1.7,1.8-0.7,2.1l2.9,0.9
						l-1.8,2.4c-0.6,0.9,1.2,2.2,1.8,1.3l1.8-2.4l1.8,2.4c0.6,0.9,2.5-0.5,1.8-1.3l-1.8-2.4l2.9-0.9
						C617.8,147.7,617.2,145.6,616.1,145.9"/>
				</g>
			</g>
			<g>
				<g id="XMLID_332_">
					<path id="XMLID_341_" class="st0" d="M443.6,18.6c-0.3-0.2-1.3-0.2-1.6,0c-1.4,1.1-2.9,4.1-3.8,6.6c-0.2,0.7,2.2,0.7,2.5,0
						c0.6-1.6,1.3-3,2.2-4.5c0.9,1.5,1.6,2.9,2.2,4.5c0.2,0.7,2.7,0.7,2.5,0C446.6,22.8,445,19.8,443.6,18.6"/>
					<path id="XMLID_338_" class="st0" d="M441.4,70.3c2.2-1.2,3.8-3.6,5.1-6.6c0.6-1.6-1.6-4.2-2.4-2.8c-1.4,2.4-2.6,3.6-4.6,4.7
						C438.1,66.4,439.9,71.2,441.4,70.3"/>
					<path id="XMLID_337_" class="st0" d="M528.1,27c2.2-1.2,3.8-3.6,5.1-6.6c0.6-1.6-1.6-4.2-2.4-2.8c-1.4,2.4-2.6,3.6-4.6,4.7
						C524.7,23.1,526.6,27.8,528.1,27"/>
					<path id="XMLID_336_" class="st0" d="M490.3,20l-2.9,0.9v-3c0-1.1-2.3-1.1-2.3,0v3l-2.9-0.9c-1-0.3-1.7,1.8-0.7,2.1l2.9,0.9
						l-1.8,2.4c-0.6,0.9,1.2,2.2,1.8,1.3l1.8-2.4l1.8,2.4c0.6,0.9,2.5-0.5,1.8-1.3L488,23l2.9-0.9C492,21.8,491.3,19.7,490.3,20"/>
					<path id="XMLID_335_" class="st0" d="M533.6,63.3l-2.9,0.9v-3c0-1.1-2.3-1.1-2.3,0v3l-2.9-0.9c-1-0.3-1.7,1.8-0.7,2.1l2.9,0.9
						l-1.8,2.4c-0.6,0.9,1.2,2.2,1.8,1.3l1.8-2.4l1.8,2.4c0.6,0.9,2.5-0.5,1.8-1.3l-1.8-2.4l2.9-0.9C535.3,65.2,534.6,63,533.6,63.3
						"/>
					<path id="XMLID_334_" class="st0" d="M487,62c-0.3-0.2-1.3-0.2-1.6,0c-1.4,1.1-2.9,4.1-3.8,6.6c-0.2,0.7,2.2,0.7,2.5,0
						c0.6-1.6,1.3-3,2.2-4.5c0.9,1.5,1.6,2.9,2.2,4.5c0.2,0.7,2.7,0.7,2.5,0C489.9,66.1,488.4,63.1,487,62"/>
				</g>
			</g>
			<g>
				<g id="XMLID_321_">
					<path id="XMLID_330_" class="st0" d="M443.6,144.5c-0.3-0.2-1.3-0.2-1.6,0c-1.4,1.1-2.9,4.1-3.8,6.6c-0.2,0.7,2.2,0.7,2.5,0
						c0.6-1.6,1.3-3,2.2-4.5c0.9,1.5,1.6,2.9,2.2,4.5c0.2,0.7,2.7,0.7,2.5,0C446.6,148.7,445,145.7,443.6,144.5"/>
					<path id="XMLID_329_" class="st0" d="M484.8,109.5c2.2-1.2,3.8-3.6,5.1-6.6c0.6-1.6-1.6-4.2-2.4-2.8c-1.4,2.4-2.6,3.6-4.6,4.7
						C481.4,105.6,483.3,110.4,484.8,109.5"/>
					<path id="XMLID_328_" class="st0" d="M446.9,102.6l-2.9,0.9v-3c0-1.1-2.3-1.1-2.3,0v3l-2.9-0.9c-1-0.3-1.7,1.8-0.7,2.1l2.9,0.9
						l-1.8,2.4c-0.6,0.9,1.2,2.2,1.8,1.3l1.8-2.4l1.8,2.4c0.6,0.9,2.5-0.5,1.8-1.3l-1.8-2.4l2.9-0.9
						C448.6,104.4,448,102.2,446.9,102.6"/>
					<path id="XMLID_326_" class="st0" d="M528.1,152.9c2.2-1.2,3.8-3.6,5.1-6.6c0.6-1.6-1.6-4.2-2.4-2.8c-1.4,2.4-2.6,3.6-4.6,4.7
						C524.7,149,526.6,153.7,528.1,152.9"/>
					<path id="XMLID_325_" class="st0" d="M490.3,145.9l-2.9,0.9v-3c0-1.1-2.3-1.1-2.3,0v3l-2.9-0.9c-1-0.3-1.7,1.8-0.7,2.1l2.9,0.9
						l-1.8,2.4c-0.6,0.9,1.2,2.2,1.8,1.3l1.8-2.4l1.8,2.4c0.6,0.9,2.5-0.5,1.8-1.3l-1.8-2.4l2.9-0.9
						C492,147.7,491.3,145.6,490.3,145.9"/>
					<path id="XMLID_322_" class="st0" d="M530.3,101.2c-0.3-0.2-1.3-0.2-1.6,0c-1.4,1.1-2.9,4.1-3.8,6.6c-0.2,0.7,2.2,0.7,2.5,0
						c0.6-1.6,1.3-3,2.2-4.5c0.9,1.5,1.6,2.9,2.2,4.5c0.2,0.7,2.7,0.7,2.5,0C533.2,105.3,531.7,102.3,530.3,101.2"/>
				</g>
			</g>
			<g>
				<g id="XMLID_266_">
					<path id="XMLID_275_" class="st0" d="M317.7,18.6c-0.3-0.2-1.3-0.2-1.6,0c-1.4,1.1-2.9,4.1-3.8,6.6c-0.2,0.7,2.2,0.7,2.5,0
						c0.6-1.6,1.3-3,2.2-4.5c0.9,1.5,1.6,2.9,2.2,4.5c0.2,0.7,2.7,0.7,2.5,0C320.7,22.8,319.2,19.8,317.7,18.6"/>
					<path id="XMLID_272_" class="st0" d="M315.6,70.3c2.2-1.2,3.8-3.6,5.1-6.6c0.6-1.6-1.6-4.2-2.4-2.8c-1.4,2.4-2.6,3.6-4.6,4.7
						C312.2,66.4,314.1,71.2,315.6,70.3"/>
					<path id="XMLID_271_" class="st0" d="M402.2,27c2.2-1.2,3.8-3.6,5.1-6.6c0.6-1.6-1.6-4.2-2.4-2.8c-1.4,2.4-2.6,3.6-4.6,4.7
						C398.9,23.1,400.7,27.8,402.2,27"/>
					<path id="XMLID_270_" class="st0" d="M364.4,20l-2.9,0.9v-3c0-1.1-2.3-1.1-2.3,0v3l-2.9-0.9c-1-0.3-1.7,1.8-0.7,2.1l2.9,0.9
						l-1.8,2.4c-0.6,0.9,1.2,2.2,1.8,1.3l1.8-2.4l1.8,2.4c0.6,0.9,2.5-0.5,1.8-1.3l-1.8-2.4l2.9-0.9C366.1,21.8,365.4,19.7,364.4,20
						"/>
					<path id="XMLID_269_" class="st0" d="M407.7,63.3l-2.9,0.9v-3c0-1.1-2.3-1.1-2.3,0v3l-2.9-0.9c-1-0.3-1.7,1.8-0.7,2.1l2.9,0.9
						l-1.8,2.4c-0.6,0.9,1.2,2.2,1.8,1.3l1.8-2.4l1.8,2.4c0.6,0.9,2.5-0.5,1.8-1.3l-1.8-2.4l2.9-0.9C409.4,65.2,408.7,63,407.7,63.3
						"/>
					<path id="XMLID_268_" class="st0" d="M361.1,62c-0.3-0.2-1.3-0.2-1.6,0c-1.4,1.1-2.9,4.1-3.8,6.6c-0.2,0.7,2.2,0.7,2.5,0
						c0.6-1.6,1.3-3,2.2-4.5c0.9,1.5,1.6,2.9,2.2,4.5c0.2,0.7,2.7,0.7,2.5,0C364,66.1,362.5,63.1,361.1,62"/>
				</g>
			</g>
			<g>
				<g id="XMLID_255_">
					<path id="XMLID_264_" class="st0" d="M317.7,144.5c-0.3-0.2-1.3-0.2-1.6,0c-1.4,1.1-2.9,4.1-3.8,6.6c-0.2,0.7,2.2,0.7,2.5,0
						c0.6-1.6,1.3-3,2.2-4.5c0.9,1.5,1.6,2.9,2.2,4.5c0.2,0.7,2.7,0.7,2.5,0C320.7,148.7,319.2,145.7,317.7,144.5"/>
					<path id="XMLID_263_" class="st0" d="M358.9,109.5c2.2-1.2,3.8-3.6,5.1-6.6c0.6-1.6-1.6-4.2-2.4-2.8c-1.4,2.4-2.6,3.6-4.6,4.7
						C355.5,105.6,357.4,110.4,358.9,109.5"/>
					<path id="XMLID_262_" class="st0" d="M321.1,102.6l-2.9,0.9v-3c0-1.1-2.3-1.1-2.3,0v3l-2.9-0.9c-1-0.3-1.7,1.8-0.7,2.1l2.9,0.9
						l-1.8,2.4c-0.6,0.9,1.2,2.2,1.8,1.3l1.8-2.4l1.8,2.4c0.6,0.9,2.5-0.5,1.8-1.3l-1.8-2.4l2.9-0.9
						C322.8,104.4,322.1,102.2,321.1,102.6"/>
					<path id="XMLID_260_" class="st0" d="M402.2,152.9c2.2-1.2,3.8-3.6,5.1-6.6c0.6-1.6-1.6-4.2-2.4-2.8c-1.4,2.4-2.6,3.6-4.6,4.7
						C398.9,149,400.7,153.7,402.2,152.9"/>
					<path id="XMLID_259_" class="st0" d="M364.4,145.9l-2.9,0.9v-3c0-1.1-2.3-1.1-2.3,0v3l-2.9-0.9c-1-0.3-1.7,1.8-0.7,2.1l2.9,0.9
						l-1.8,2.4c-0.6,0.9,1.2,2.2,1.8,1.3l1.8-2.4l1.8,2.4c0.6,0.9,2.5-0.5,1.8-1.3l-1.8-2.4l2.9-0.9
						C366.1,147.7,365.4,145.6,364.4,145.9"/>
					<path id="XMLID_256_" class="st0" d="M404.4,101.2c-0.3-0.2-1.3-0.2-1.6,0c-1.4,1.1-2.9,4.1-3.8,6.6c-0.2,0.7,2.2,0.7,2.5,0
						c0.6-1.6,1.3-3,2.2-4.5c0.9,1.5,1.6,2.9,2.2,4.5c0.2,0.7,2.7,0.7,2.5,0C407.3,105.3,405.8,102.3,404.4,101.2"/>
				</g>
			</g>
			<g>
				<g id="XMLID_200_">
					<path id="XMLID_209_" class="st0" d="M191.9,18.6c-0.3-0.2-1.3-0.2-1.6,0c-1.4,1.1-2.9,4.1-3.8,6.6c-0.2,0.7,2.2,0.7,2.5,0
						c0.6-1.6,1.3-3,2.2-4.5c0.9,1.5,1.6,2.9,2.2,4.5c0.2,0.7,2.7,0.7,2.5,0C194.8,22.8,193.3,19.8,191.9,18.6"/>
					<path id="XMLID_206_" class="st0" d="M189.7,70.3c2.2-1.2,3.8-3.6,5.1-6.6c0.6-1.6-1.6-4.2-2.4-2.8c-1.4,2.4-2.6,3.6-4.6,4.7
						C186.3,66.4,188.2,71.2,189.7,70.3"/>
					<path id="XMLID_205_" class="st0" d="M276.3,27c2.2-1.2,3.8-3.6,5.1-6.6c0.6-1.6-1.6-4.2-2.4-2.8c-1.4,2.4-2.6,3.6-4.6,4.7
						C273,23.1,274.8,27.8,276.3,27"/>
					<path id="XMLID_204_" class="st0" d="M238.5,20l-2.9,0.9v-3c0-1.1-2.3-1.1-2.3,0v3l-2.9-0.9c-1-0.3-1.7,1.8-0.7,2.1l2.9,0.9
						l-1.8,2.4c-0.6,0.9,1.2,2.2,1.8,1.3l1.8-2.4l1.8,2.4c0.6,0.9,2.5-0.5,1.8-1.3l-1.8-2.4l2.9-0.9C240.2,21.8,239.5,19.7,238.5,20
						"/>
					<path id="XMLID_203_" class="st0" d="M281.8,63.3l-2.9,0.9v-3c0-1.1-2.3-1.1-2.3,0v3l-2.9-0.9c-1-0.3-1.7,1.8-0.7,2.1l2.9,0.9
						l-1.8,2.4c-0.6,0.9,1.2,2.2,1.8,1.3l1.8-2.4l1.8,2.4c0.6,0.9,2.5-0.5,1.8-1.3l-1.8-2.4l2.9-0.9C283.5,65.2,282.9,63,281.8,63.3
						"/>
					<path id="XMLID_202_" class="st0" d="M235.2,62c-0.3-0.2-1.3-0.2-1.6,0c-1.4,1.1-2.9,4.1-3.8,6.6c-0.2,0.7,2.2,0.7,2.5,0
						c0.6-1.6,1.3-3,2.2-4.5c0.9,1.5,1.6,2.9,2.2,4.5c0.2,0.7,2.7,0.7,2.5,0C238.1,66.1,236.6,63.1,235.2,62"/>
				</g>
			</g>
			<g>
				<g id="XMLID_189_">
					<path id="XMLID_198_" class="st0" d="M191.9,144.5c-0.3-0.2-1.3-0.2-1.6,0c-1.4,1.1-2.9,4.1-3.8,6.6c-0.2,0.7,2.2,0.7,2.5,0
						c0.6-1.6,1.3-3,2.2-4.5c0.9,1.5,1.6,2.9,2.2,4.5c0.2,0.7,2.7,0.7,2.5,0C194.8,148.7,193.3,145.7,191.9,144.5"/>
					<path id="XMLID_197_" class="st0" d="M233,109.5c2.2-1.2,3.8-3.6,5.1-6.6c0.6-1.6-1.6-4.2-2.4-2.8c-1.4,2.4-2.6,3.6-4.6,4.7
						C229.6,105.6,231.5,110.4,233,109.5"/>
					<path id="XMLID_196_" class="st0" d="M195.2,102.6l-2.9,0.9v-3c0-1.1-2.3-1.1-2.3,0v3l-2.9-0.9c-1-0.3-1.7,1.8-0.7,2.1l2.9,0.9
						l-1.8,2.4c-0.6,0.9,1.2,2.2,1.8,1.3l1.8-2.4l1.8,2.4c0.6,0.9,2.5-0.5,1.8-1.3l-1.8-2.4l2.9-0.9
						C196.9,104.4,196.2,102.2,195.2,102.6"/>
					<path id="XMLID_194_" class="st0" d="M276.3,152.9c2.2-1.2,3.8-3.6,5.1-6.6c0.6-1.6-1.6-4.2-2.4-2.8c-1.4,2.4-2.6,3.6-4.6,4.7
						C273,149,274.8,153.7,276.3,152.9"/>
					<path id="XMLID_193_" class="st0" d="M238.5,145.9l-2.9,0.9v-3c0-1.1-2.3-1.1-2.3,0v3l-2.9-0.9c-1-0.3-1.7,1.8-0.7,2.1l2.9,0.9
						l-1.8,2.4c-0.6,0.9,1.2,2.2,1.8,1.3l1.8-2.4l1.8,2.4c0.6,0.9,2.5-0.5,1.8-1.3l-1.8-2.4l2.9-0.9
						C240.2,147.7,239.5,145.6,238.5,145.9"/>
					<path id="XMLID_190_" class="st0" d="M278.5,101.2c-0.3-0.2-1.3-0.2-1.6,0c-1.4,1.1-2.9,4.1-3.8,6.6c-0.2,0.7,2.2,0.7,2.5,0
						c0.6-1.6,1.3-3,2.2-4.5c0.9,1.5,1.6,2.9,2.2,4.5c0.2,0.7,2.7,0.7,2.5,0C281.5,105.3,280,102.3,278.5,101.2"/>
				</g>
			</g>
			<g>
				<g id="XMLID_134_">
					<path id="XMLID_143_" class="st0" d="M66,18.6c-0.3-0.2-1.3-0.2-1.6,0c-1.4,1.1-2.9,4.1-3.8,6.6c-0.2,0.7,2.2,0.7,2.5,0
						c0.6-1.6,1.3-3,2.2-4.5c0.9,1.5,1.6,2.9,2.2,4.5c0.2,0.7,2.7,0.7,2.5,0C68.9,22.8,67.4,19.8,66,18.6"/>
					<path id="XMLID_140_" class="st0" d="M63.8,70.3c2.2-1.2,3.8-3.6,5.1-6.6c0.6-1.6-1.6-4.2-2.4-2.8c-1.4,2.4-2.6,3.6-4.6,4.7
						C60.4,66.4,62.3,71.2,63.8,70.3"/>
					<path id="XMLID_139_" class="st0" d="M150.5,27c2.2-1.2,3.8-3.6,5.1-6.6c0.6-1.6-1.6-4.2-2.4-2.8c-1.4,2.4-2.6,3.6-4.6,4.7
						C147.1,23.1,149,27.8,150.5,27"/>
					<path id="XMLID_138_" class="st0" d="M112.6,20l-2.9,0.9v-3c0-1.1-2.3-1.1-2.3,0v3l-2.9-0.9c-1-0.3-1.7,1.8-0.7,2.1l2.9,0.9
						l-1.8,2.4c-0.6,0.9,1.2,2.2,1.8,1.3l1.8-2.4l1.8,2.4c0.6,0.9,2.5-0.5,1.8-1.3l-1.8-2.4l2.9-0.9C114.3,21.8,113.7,19.7,112.6,20
						"/>
					<path id="XMLID_137_" class="st0" d="M156,63.3l-2.9,0.9v-3c0-1.1-2.3-1.1-2.3,0v3l-2.9-0.9c-1-0.3-1.7,1.8-0.7,2.1l2.9,0.9
						l-1.8,2.4c-0.6,0.9,1.2,2.2,1.8,1.3l1.8-2.4l1.8,2.4c0.6,0.9,2.5-0.5,1.8-1.3l-1.8-2.4l2.9-0.9C157.7,65.2,157,63,156,63.3"/>
					<path id="XMLID_136_" class="st0" d="M109.3,62c-0.3-0.2-1.3-0.2-1.6,0c-1.4,1.1-2.9,4.1-3.8,6.6c-0.2,0.7,2.2,0.7,2.5,0
						c0.6-1.6,1.3-3,2.2-4.5c0.9,1.5,1.6,2.9,2.2,4.5c0.2,0.7,2.7,0.7,2.5,0C112.3,66.1,110.8,63.1,109.3,62"/>
				</g>
			</g>
			<g>
				<g id="XMLID_123_">
					<path id="XMLID_132_" class="st0" d="M66,144.5c-0.3-0.2-1.3-0.2-1.6,0c-1.4,1.1-2.9,4.1-3.8,6.6c-0.2,0.7,2.2,0.7,2.5,0
						c0.6-1.6,1.3-3,2.2-4.5c0.9,1.5,1.6,2.9,2.2,4.5c0.2,0.7,2.7,0.7,2.5,0C68.9,148.7,67.4,145.7,66,144.5"/>
					<path id="XMLID_131_" class="st0" d="M107.1,109.5c2.2-1.2,3.8-3.6,5.1-6.6c0.6-1.6-1.6-4.2-2.4-2.8c-1.4,2.4-2.6,3.6-4.6,4.7
						C103.8,105.6,105.6,110.4,107.1,109.5"/>
					<path id="XMLID_130_" class="st0" d="M69.3,102.6l-2.9,0.9v-3c0-1.1-2.3-1.1-2.3,0v3l-2.9-0.9c-1-0.3-1.7,1.8-0.7,2.1l2.9,0.9
						l-1.8,2.4c-0.6,0.9,1.2,2.2,1.8,1.3l1.8-2.4l1.8,2.4c0.6,0.9,2.5-0.5,1.8-1.3l-1.8-2.4l2.9-0.9C71,104.4,70.3,102.2,69.3,102.6
						"/>
					<path id="XMLID_128_" class="st0" d="M150.5,152.9c2.2-1.2,3.8-3.6,5.1-6.6c0.6-1.6-1.6-4.2-2.4-2.8c-1.4,2.4-2.6,3.6-4.6,4.7
						C147.1,149,149,153.7,150.5,152.9"/>
					<path id="XMLID_127_" class="st0" d="M112.6,145.9l-2.9,0.9v-3c0-1.1-2.3-1.1-2.3,0v3l-2.9-0.9c-1-0.3-1.7,1.8-0.7,2.1l2.9,0.9
						l-1.8,2.4c-0.6,0.9,1.2,2.2,1.8,1.3l1.8-2.4l1.8,2.4c0.6,0.9,2.5-0.5,1.8-1.3l-1.8-2.4l2.9-0.9
						C114.3,147.7,113.7,145.6,112.6,145.9"/>
					<path id="XMLID_124_" class="st0" d="M152.7,101.2c-0.3-0.2-1.3-0.2-1.6,0c-1.4,1.1-2.9,4.1-3.8,6.6c-0.2,0.7,2.2,0.7,2.5,0
						c0.6-1.6,1.3-3,2.2-4.5c0.9,1.5,1.6,2.9,2.2,4.5c0.2,0.7,2.7,0.7,2.5,0C155.6,105.3,154.1,102.3,152.7,101.2"/>
				</g>
			</g>
			<g>
				<g id="XMLID_68_">
					<path id="XMLID_73_" class="st0" d="M24.6,27c2.2-1.2,3.8-3.6,5.1-6.6c0.6-1.6-1.6-4.2-2.4-2.8c-1.4,2.4-2.6,3.6-4.6,4.7
						C21.2,23.1,23.1,27.8,24.6,27"/>
					<path id="XMLID_71_" class="st0" d="M30.1,63.3l-2.9,0.9v-3c0-1.1-2.3-1.1-2.3,0v3L22,63.3c-1-0.3-1.7,1.8-0.7,2.1l2.9,0.9
						l-1.8,2.4c-0.6,0.9,1.2,2.2,1.8,1.3l1.8-2.4l1.8,2.4c0.6,0.9,2.5-0.5,1.8-1.3l-1.8-2.4l2.9-0.8C31.8,65.2,31.1,63,30.1,63.3"/>
				</g>
			</g>
			<g>
				<g id="XMLID_57_">
					<path id="XMLID_62_" class="st0" d="M24.6,152.9c2.2-1.2,3.8-3.6,5.1-6.6c0.6-1.6-1.6-4.2-2.4-2.8c-1.4,2.4-2.6,3.6-4.6,4.7
						C21.2,149,23.1,153.7,24.6,152.9"/>
					<path id="XMLID_58_" class="st0" d="M26.8,101.2c-0.3-0.2-1.3-0.2-1.6,0c-1.4,1.1-2.9,4.1-3.8,6.6c-0.2,0.7,2.2,0.7,2.5,0
						c0.6-1.6,1.3-3,2.2-4.5c0.9,1.5,1.6,2.9,2.2,4.5c0.2,0.7,2.7,0.7,2.5,0C29.7,105.3,28.2,102.3,26.8,101.2"/>
				</g>
			</g>
		</g>
	</g>
</g>
</svg>
