<?xml version="1.0" encoding="utf-8"?>
<!-- Generator: Adobe Illustrator 23.0.4, SVG Export Plug-In . SVG Version: 6.00 Build 0)  -->
<svg version="1.1" xmlns="http://www.w3.org/2000/svg" xmlns:xlink="http://www.w3.org/1999/xlink" x="0px" y="0px"
	 viewBox="0 0 664.7 666.5" style="enable-background:new 0 0 664.7 666.5;" xml:space="preserve">
<g id="Layer_1">
</g>
<g id="Layer_2">
	<g id="XMLID_1384_">
		<g>
			<defs>
				<rect id="SVGID_1_" width="664.7" height="666.5"/>
			</defs>
			<clipPath id="SVGID_2_">
				<use xlink:href="#SVGID_1_"  style="overflow:visible;"/>
			</clipPath>
			<g id="XMLID_398_" style="clip-path:url(#SVGID_2_);">
				<rect id="XMLID_408_" x="547.4" y="-44.3" style="fill:none;" width="125.9" height="125.9"/>
				<path id="XMLID_407_" style="fill:#E25D25;" d="M567.8,15.1c-0.3-0.2-1.3-0.2-1.6,0c-1.4,1.1-2.9,4.1-3.8,6.6
					c-0.2,0.7,2.2,0.7,2.5,0c0.6-1.6,1.3-3,2.2-4.5c0.9,1.5,1.6,2.9,2.2,4.5c0.2,0.7,2.7,0.7,2.5,0
					C570.7,19.3,569.2,16.3,567.8,15.1"/>
				<path id="XMLID_406_" style="fill:#E25D25;" d="M608.9-19.8c2.2-1.2,3.8-3.6,5.1-6.6c0.6-1.6-1.6-4.2-2.4-2.8
					c-1.4,2.4-2.6,3.6-4.6,4.7C605.6-23.7,607.4-19,608.9-19.8"/>
				<path id="XMLID_405_" style="fill:#E25D25;" d="M571.1-26.8l-2.9,0.9v-3c0-1.1-2.3-1.1-2.3,0v3l-2.9-0.9c-1-0.3-1.7,1.8-0.7,2.1
					l2.9,0.9l-1.8,2.4c-0.6,0.9,1.2,2.2,1.8,1.3l1.8-2.4l1.8,2.4c0.6,0.9,2.5-0.5,1.8-1.3l-1.8-2.4l2.9-0.9
					C572.8-25,572.1-27.2,571.1-26.8"/>
				<path id="XMLID_404_" style="fill:#E25D25;" d="M565.6,66.8c2.2-1.2,3.8-3.6,5.1-6.6c0.6-1.6-1.6-4.2-2.4-2.8
					c-1.4,2.4-2.6,3.6-4.6,4.7C562.3,62.9,564.1,67.7,565.6,66.8"/>
				<path id="XMLID_403_" style="fill:#E25D25;" d="M652.3,23.5c2.2-1.2,3.8-3.6,5.1-6.6c0.6-1.6-1.6-4.2-2.4-2.8
					c-1.4,2.4-2.6,3.6-4.6,4.7C648.9,19.6,650.8,24.3,652.3,23.5"/>
				<path id="XMLID_402_" style="fill:#E25D25;" d="M614.4,16.5l-2.9,0.9v-3c0-1.1-2.3-1.1-2.3,0v3l-2.9-0.9c-1-0.3-1.7,1.8-0.7,2.1
					l2.9,0.9l-1.8,2.4c-0.6,0.9,1.2,2.2,1.8,1.3l1.8-2.4l1.8,2.4c0.6,0.9,2.5-0.5,1.8-1.3l-1.8-2.4l2.9-0.9
					C616.1,18.3,615.5,16.2,614.4,16.5"/>
				<path id="XMLID_401_" style="fill:#E25D25;" d="M657.8,59.8l-2.9,0.9v-3c0-1.1-2.3-1.1-2.3,0v3l-2.9-0.9c-1-0.3-1.7,1.8-0.7,2.1
					l2.9,0.9l-1.8,2.4c-0.6,0.9,1.2,2.2,1.8,1.3l1.8-2.4l1.8,2.4c0.6,0.9,2.5-0.5,1.8-1.3l-1.8-2.4l2.9-0.9
					C659.5,61.7,658.8,59.5,657.8,59.8"/>
				<path id="XMLID_400_" style="fill:#E25D25;" d="M611.2,58.5c-0.3-0.2-1.3-0.2-1.6,0c-1.4,1.1-2.9,4.1-3.8,6.6
					c-0.2,0.7,2.2,0.7,2.5,0c0.6-1.6,1.3-3,2.2-4.5c0.9,1.5,1.6,2.9,2.2,4.5c0.2,0.7,2.7,0.7,2.5,0
					C614.1,62.6,612.6,59.6,611.2,58.5"/>
				<path id="XMLID_399_" style="fill:#E25D25;" d="M654.5-28.2c-0.3-0.2-1.3-0.2-1.6,0c-1.4,1.1-2.9,4.1-3.8,6.6
					c-0.2,0.7,2.2,0.7,2.5,0c0.6-1.6,1.3-3,2.2-4.5c0.9,1.5,1.6,2.9,2.2,4.5c0.2,0.7,2.7,0.7,2.5,0C657.4-24,655.9-27,654.5-28.2"/>
			</g>
			<g id="XMLID_387_" style="clip-path:url(#SVGID_2_);">
				<rect id="XMLID_397_" x="547.4" y="81.6" style="fill:none;" width="125.9" height="125.9"/>
				<path id="XMLID_396_" style="fill:#E25D25;" d="M567.8,141c-0.3-0.2-1.3-0.2-1.6,0c-1.4,1.1-2.9,4.1-3.8,6.6
					c-0.2,0.7,2.2,0.7,2.5,0c0.6-1.6,1.3-3,2.2-4.5c0.9,1.5,1.6,2.9,2.2,4.5c0.2,0.7,2.7,0.7,2.5,0
					C570.7,145.2,569.2,142.2,567.8,141"/>
				<path id="XMLID_395_" style="fill:#E25D25;" d="M608.9,106c2.2-1.2,3.8-3.6,5.1-6.6c0.6-1.6-1.6-4.2-2.4-2.8
					c-1.4,2.4-2.6,3.6-4.6,4.7C605.6,102.1,607.4,106.9,608.9,106"/>
				<path id="XMLID_394_" style="fill:#E25D25;" d="M571.1,99.1l-2.9,0.9v-3c0-1.1-2.3-1.1-2.3,0v3l-2.9-0.9c-1-0.3-1.7,1.8-0.7,2.1
					l2.9,0.9l-1.8,2.4c-0.6,0.9,1.2,2.2,1.8,1.3l1.8-2.4l1.8,2.4c0.6,0.9,2.5-0.5,1.8-1.3l-1.8-2.4l2.9-0.9
					C572.8,100.9,572.1,98.7,571.1,99.1"/>
				<path id="XMLID_393_" style="fill:#E25D25;" d="M565.6,192.7c2.2-1.2,3.8-3.6,5.1-6.6c0.6-1.6-1.6-4.2-2.4-2.8
					c-1.4,2.4-2.6,3.6-4.6,4.7C562.3,188.8,564.1,193.6,565.6,192.7"/>
				<path id="XMLID_392_" style="fill:#E25D25;" d="M652.3,149.4c2.2-1.2,3.8-3.6,5.1-6.6c0.6-1.6-1.6-4.2-2.4-2.8
					c-1.4,2.4-2.6,3.6-4.6,4.7C648.9,145.5,650.8,150.2,652.3,149.4"/>
				<path id="XMLID_391_" style="fill:#E25D25;" d="M614.4,142.4l-2.9,0.9v-3c0-1.1-2.3-1.1-2.3,0v3l-2.9-0.9
					c-1-0.3-1.7,1.8-0.7,2.1l2.9,0.9l-1.8,2.4c-0.6,0.9,1.2,2.2,1.8,1.3l1.8-2.4l1.8,2.4c0.6,0.9,2.5-0.5,1.8-1.3l-1.8-2.4l2.9-0.9
					C616.1,144.2,615.5,142.1,614.4,142.4"/>
				<path id="XMLID_390_" style="fill:#E25D25;" d="M657.8,185.7l-2.9,0.9v-3c0-1.1-2.3-1.1-2.3,0v3l-2.9-0.9
					c-1-0.3-1.7,1.8-0.7,2.1l2.9,0.9l-1.8,2.4c-0.6,0.9,1.2,2.2,1.8,1.3l1.8-2.4l1.8,2.4c0.6,0.9,2.5-0.5,1.8-1.3l-1.8-2.4l2.9-0.9
					C659.5,187.5,658.8,185.4,657.8,185.7"/>
				<path id="XMLID_389_" style="fill:#E25D25;" d="M611.2,184.4c-0.3-0.2-1.3-0.2-1.6,0c-1.4,1.1-2.9,4.1-3.8,6.6
					c-0.2,0.7,2.2,0.7,2.5,0c0.6-1.6,1.3-3,2.2-4.5c0.9,1.5,1.6,2.9,2.2,4.5c0.2,0.7,2.7,0.7,2.5,0
					C614.1,188.5,612.6,185.5,611.2,184.4"/>
				<path id="XMLID_388_" style="fill:#E25D25;" d="M654.5,97.7c-0.3-0.2-1.3-0.2-1.6,0c-1.4,1.1-2.9,4.1-3.8,6.6
					c-0.2,0.7,2.2,0.7,2.5,0c0.6-1.6,1.3-3,2.2-4.5c0.9,1.5,1.6,2.9,2.2,4.5c0.2,0.7,2.7,0.7,2.5,0
					C657.4,101.8,655.9,98.8,654.5,97.7"/>
			</g>
			<g id="XMLID_376_" style="clip-path:url(#SVGID_2_);">
				<rect id="XMLID_386_" x="547.4" y="207.5" style="fill:none;" width="125.9" height="125.9"/>
				<path id="XMLID_385_" style="fill:#E25D25;" d="M567.8,266.9c-0.3-0.2-1.3-0.2-1.6,0c-1.4,1.1-2.9,4.1-3.8,6.6
					c-0.2,0.7,2.2,0.7,2.5,0c0.6-1.6,1.3-3,2.2-4.5c0.9,1.5,1.6,2.9,2.2,4.5c0.2,0.7,2.7,0.7,2.5,0C570.7,271,569.2,268,567.8,266.9
					"/>
				<path id="XMLID_384_" style="fill:#E25D25;" d="M608.9,231.9c2.2-1.2,3.8-3.6,5.1-6.6c0.6-1.6-1.6-4.2-2.4-2.8
					c-1.4,2.4-2.6,3.6-4.6,4.7C605.6,228,607.4,232.8,608.9,231.9"/>
				<path id="XMLID_383_" style="fill:#E25D25;" d="M571.1,224.9l-2.9,0.9v-3c0-1.1-2.3-1.1-2.3,0v3l-2.9-0.9
					c-1-0.3-1.7,1.8-0.7,2.1l2.9,0.9l-1.8,2.4c-0.6,0.9,1.2,2.2,1.8,1.3l1.8-2.4l1.8,2.4c0.6,0.9,2.5-0.5,1.8-1.3l-1.8-2.4l2.9-0.9
					C572.8,226.7,572.1,224.6,571.1,224.9"/>
				<path id="XMLID_382_" style="fill:#E25D25;" d="M565.6,318.6c2.2-1.2,3.8-3.6,5.1-6.6c0.6-1.6-1.6-4.2-2.4-2.8
					c-1.4,2.4-2.6,3.6-4.6,4.7C562.3,314.7,564.1,319.4,565.6,318.6"/>
				<path id="XMLID_381_" style="fill:#E25D25;" d="M652.3,275.3c2.2-1.2,3.8-3.6,5.1-6.6c0.6-1.6-1.6-4.2-2.4-2.8
					c-1.4,2.4-2.6,3.6-4.6,4.7C648.9,271.4,650.8,276.1,652.3,275.3"/>
				<path id="XMLID_380_" style="fill:#E25D25;" d="M614.4,268.3l-2.9,0.9v-3c0-1.1-2.3-1.1-2.3,0v3l-2.9-0.9
					c-1-0.3-1.7,1.8-0.7,2.1l2.9,0.9l-1.8,2.4c-0.6,0.9,1.2,2.2,1.8,1.3l1.8-2.4l1.8,2.4c0.6,0.9,2.5-0.5,1.8-1.3l-1.8-2.4l2.9-0.9
					C616.1,270.1,615.5,267.9,614.4,268.3"/>
				<path id="XMLID_379_" style="fill:#E25D25;" d="M657.8,311.6l-2.9,0.9v-3c0-1.1-2.3-1.1-2.3,0v3l-2.9-0.9
					c-1-0.3-1.7,1.8-0.7,2.1l2.9,0.9l-1.8,2.4c-0.6,0.9,1.2,2.2,1.8,1.3l1.8-2.4l1.8,2.4c0.6,0.9,2.5-0.5,1.8-1.3l-1.8-2.4l2.9-0.9
					C659.5,313.4,658.8,311.3,657.8,311.6"/>
				<path id="XMLID_378_" style="fill:#E25D25;" d="M611.2,310.2c-0.3-0.2-1.3-0.2-1.6,0c-1.4,1.1-2.9,4.1-3.8,6.6
					c-0.2,0.7,2.2,0.7,2.5,0c0.6-1.6,1.3-3,2.2-4.5c0.9,1.5,1.6,2.9,2.2,4.5c0.2,0.7,2.7,0.7,2.5,0
					C614.1,314.4,612.6,311.4,611.2,310.2"/>
				<path id="XMLID_377_" style="fill:#E25D25;" d="M654.5,223.6c-0.3-0.2-1.3-0.2-1.6,0c-1.4,1.1-2.9,4.1-3.8,6.6
					c-0.2,0.7,2.2,0.7,2.5,0c0.6-1.6,1.3-3,2.2-4.5c0.9,1.5,1.6,2.9,2.2,4.5c0.2,0.7,2.7,0.7,2.5,0
					C657.4,227.7,655.9,224.7,654.5,223.6"/>
			</g>
			<g id="XMLID_365_" style="clip-path:url(#SVGID_2_);">
				<rect id="XMLID_375_" x="547.4" y="333.3" style="fill:none;" width="125.9" height="125.9"/>
				<path id="XMLID_374_" style="fill:#E25D25;" d="M567.8,392.8c-0.3-0.2-1.3-0.2-1.6,0c-1.4,1.1-2.9,4.1-3.8,6.6
					c-0.2,0.7,2.2,0.7,2.5,0c0.6-1.6,1.3-3,2.2-4.5c0.9,1.5,1.6,2.9,2.2,4.5c0.2,0.7,2.7,0.7,2.5,0
					C570.7,396.9,569.2,393.9,567.8,392.8"/>
				<path id="XMLID_373_" style="fill:#E25D25;" d="M608.9,357.8c2.2-1.2,3.8-3.6,5.1-6.6c0.6-1.6-1.6-4.2-2.4-2.8
					c-1.4,2.4-2.6,3.6-4.6,4.7C605.6,353.9,607.4,358.6,608.9,357.8"/>
				<path id="XMLID_372_" style="fill:#E25D25;" d="M571.1,350.8l-2.9,0.9v-3c0-1.1-2.3-1.1-2.3,0v3l-2.9-0.9
					c-1-0.3-1.7,1.8-0.7,2.1l2.9,0.9l-1.8,2.4c-0.6,0.9,1.2,2.2,1.8,1.3l1.8-2.4l1.8,2.4c0.6,0.9,2.5-0.5,1.8-1.3l-1.8-2.4l2.9-0.9
					C572.8,352.6,572.1,350.5,571.1,350.8"/>
				<path id="XMLID_371_" style="fill:#E25D25;" d="M565.6,444.5c2.2-1.2,3.8-3.6,5.1-6.6c0.6-1.6-1.6-4.2-2.4-2.8
					c-1.4,2.4-2.6,3.6-4.6,4.7C562.3,440.6,564.1,445.3,565.6,444.5"/>
				<path id="XMLID_370_" style="fill:#E25D25;" d="M652.3,401.1c2.2-1.2,3.8-3.6,5.1-6.6c0.6-1.6-1.6-4.2-2.4-2.8
					c-1.4,2.4-2.6,3.6-4.6,4.7C648.9,397.2,650.8,402,652.3,401.1"/>
				<path id="XMLID_369_" style="fill:#E25D25;" d="M614.4,394.1l-2.9,0.9v-3c0-1.1-2.3-1.1-2.3,0v3l-2.9-0.9
					c-1-0.3-1.7,1.8-0.7,2.1l2.9,0.9l-1.8,2.4c-0.6,0.9,1.2,2.2,1.8,1.3l1.8-2.4l1.8,2.4c0.6,0.9,2.5-0.5,1.8-1.3l-1.8-2.4l2.9-0.9
					C616.1,396,615.5,393.8,614.4,394.1"/>
				<path id="XMLID_368_" style="fill:#E25D25;" d="M657.8,437.5l-2.9,0.9v-3c0-1.1-2.3-1.1-2.3,0v3l-2.9-0.9
					c-1-0.3-1.7,1.8-0.7,2.1l2.9,0.9L650,443c-0.6,0.9,1.2,2.2,1.8,1.3l1.8-2.4l1.8,2.4c0.6,0.9,2.5-0.5,1.8-1.3l-1.8-2.4l2.9-0.9
					C659.5,439.3,658.8,437.1,657.8,437.5"/>
				<path id="XMLID_367_" style="fill:#E25D25;" d="M611.2,436.1c-0.3-0.2-1.3-0.2-1.6,0c-1.4,1.1-2.9,4.1-3.8,6.6
					c-0.2,0.7,2.2,0.7,2.5,0c0.6-1.6,1.3-3,2.2-4.5c0.9,1.5,1.6,2.9,2.2,4.5c0.2,0.7,2.7,0.7,2.5,0
					C614.1,440.3,612.6,437.3,611.2,436.1"/>
				<path id="XMLID_366_" style="fill:#E25D25;" d="M654.5,349.4c-0.3-0.2-1.3-0.2-1.6,0c-1.4,1.1-2.9,4.1-3.8,6.6
					c-0.2,0.7,2.2,0.7,2.5,0c0.6-1.6,1.3-3,2.2-4.5c0.9,1.5,1.6,2.9,2.2,4.5c0.2,0.7,2.7,0.7,2.5,0
					C657.4,353.6,655.9,350.6,654.5,349.4"/>
			</g>
			<g id="XMLID_354_" style="clip-path:url(#SVGID_2_);">
				<rect id="XMLID_364_" x="547.4" y="459.2" style="fill:none;" width="125.9" height="125.9"/>
				<path id="XMLID_363_" style="fill:#E25D25;" d="M567.8,518.7c-0.3-0.2-1.3-0.2-1.6,0c-1.4,1.1-2.9,4.1-3.8,6.6
					c-0.2,0.7,2.2,0.7,2.5,0c0.6-1.6,1.3-3,2.2-4.5c0.9,1.5,1.6,2.9,2.2,4.5c0.2,0.7,2.7,0.7,2.5,0
					C570.7,522.8,569.2,519.8,567.8,518.7"/>
				<path id="XMLID_362_" style="fill:#E25D25;" d="M608.9,483.7c2.2-1.2,3.8-3.6,5.1-6.6c0.6-1.6-1.6-4.2-2.4-2.8
					c-1.4,2.4-2.6,3.6-4.6,4.7C605.6,479.8,607.4,484.5,608.9,483.7"/>
				<path id="XMLID_361_" style="fill:#E25D25;" d="M571.1,476.7l-2.9,0.9v-3c0-1.1-2.3-1.1-2.3,0v3l-2.9-0.9
					c-1-0.3-1.7,1.8-0.7,2.1l2.9,0.9l-1.8,2.4c-0.6,0.9,1.2,2.2,1.8,1.3l1.8-2.4l1.8,2.4c0.6,0.9,2.5-0.5,1.8-1.3l-1.8-2.4l2.9-0.9
					C572.8,478.5,572.1,476.4,571.1,476.7"/>
				<path id="XMLID_360_" style="fill:#E25D25;" d="M565.6,570.3c2.2-1.2,3.8-3.6,5.1-6.6c0.6-1.6-1.6-4.2-2.4-2.8
					c-1.4,2.4-2.6,3.6-4.6,4.7C562.3,566.4,564.1,571.2,565.6,570.3"/>
				<path id="XMLID_359_" style="fill:#E25D25;" d="M652.3,527c2.2-1.2,3.8-3.6,5.1-6.6c0.6-1.6-1.6-4.2-2.4-2.8
					c-1.4,2.4-2.6,3.6-4.6,4.7C648.9,523.1,650.8,527.9,652.3,527"/>
				<path id="XMLID_358_" style="fill:#E25D25;" d="M614.4,520l-2.9,0.9v-3c0-1.1-2.3-1.1-2.3,0v3l-2.9-0.9c-1-0.3-1.7,1.8-0.7,2.1
					l2.9,0.9l-1.8,2.4c-0.6,0.9,1.2,2.2,1.8,1.3l1.8-2.4l1.8,2.4c0.6,0.9,2.5-0.5,1.8-1.3l-1.8-2.4l2.9-0.9
					C616.1,521.8,615.5,519.7,614.4,520"/>
				<path id="XMLID_357_" style="fill:#E25D25;" d="M657.8,563.4l-2.9,0.9v-3c0-1.1-2.3-1.1-2.3,0v3l-2.9-0.9
					c-1-0.3-1.7,1.8-0.7,2.1l2.9,0.9l-1.8,2.4c-0.6,0.9,1.2,2.2,1.8,1.3l1.8-2.4l1.8,2.4c0.6,0.9,2.5-0.5,1.8-1.3l-1.8-2.4l2.9-0.9
					C659.5,565.2,658.8,563,657.8,563.4"/>
				<path id="XMLID_356_" style="fill:#E25D25;" d="M611.2,562c-0.3-0.2-1.3-0.2-1.6,0c-1.4,1.1-2.9,4.1-3.8,6.6
					c-0.2,0.7,2.2,0.7,2.5,0c0.6-1.6,1.3-3,2.2-4.5c0.9,1.5,1.6,2.9,2.2,4.5c0.2,0.7,2.7,0.7,2.5,0
					C614.1,566.1,612.6,563.1,611.2,562"/>
				<path id="XMLID_355_" style="fill:#E25D25;" d="M654.5,475.3c-0.3-0.2-1.3-0.2-1.6,0c-1.4,1.1-2.9,4.1-3.8,6.6
					c-0.2,0.7,2.2,0.7,2.5,0c0.6-1.6,1.3-3,2.2-4.5c0.9,1.5,1.6,2.9,2.2,4.5c0.2,0.7,2.7,0.7,2.5,0
					C657.4,479.5,655.9,476.5,654.5,475.3"/>
			</g>
			<g id="XMLID_343_" style="clip-path:url(#SVGID_2_);">
				<rect id="XMLID_353_" x="547.4" y="585.1" style="fill:none;" width="125.9" height="125.9"/>
				<path id="XMLID_352_" style="fill:#E25D25;" d="M567.8,644.5c-0.3-0.2-1.3-0.2-1.6,0c-1.4,1.1-2.9,4.1-3.8,6.6
					c-0.2,0.7,2.2,0.7,2.5,0c0.6-1.6,1.3-3,2.2-4.5c0.9,1.5,1.6,2.9,2.2,4.5c0.2,0.7,2.7,0.7,2.5,0
					C570.7,648.7,569.2,645.7,567.8,644.5"/>
				<path id="XMLID_351_" style="fill:#E25D25;" d="M608.9,609.6c2.2-1.2,3.8-3.6,5.1-6.6c0.6-1.6-1.6-4.2-2.4-2.8
					c-1.4,2.4-2.6,3.6-4.6,4.7C605.6,605.7,607.4,610.4,608.9,609.6"/>
				<path id="XMLID_350_" style="fill:#E25D25;" d="M571.1,602.6l-2.9,0.9v-3c0-1.1-2.3-1.1-2.3,0v3l-2.9-0.9
					c-1-0.3-1.7,1.8-0.7,2.1l2.9,0.9l-1.8,2.4c-0.6,0.9,1.2,2.2,1.8,1.3l1.8-2.4l1.8,2.4c0.6,0.9,2.5-0.5,1.8-1.3l-1.8-2.4l2.9-0.9
					C572.8,604.4,572.1,602.2,571.1,602.6"/>
				<path id="XMLID_349_" style="fill:#E25D25;" d="M565.6,696.2c2.2-1.2,3.8-3.6,5.1-6.6c0.6-1.6-1.6-4.2-2.4-2.8
					c-1.4,2.4-2.6,3.6-4.6,4.7C562.3,692.3,564.1,697.1,565.6,696.2"/>
				<path id="XMLID_348_" style="fill:#E25D25;" d="M652.3,652.9c2.2-1.2,3.8-3.6,5.1-6.6c0.6-1.6-1.6-4.2-2.4-2.8
					c-1.4,2.4-2.6,3.6-4.6,4.7C648.9,649,650.8,653.7,652.3,652.9"/>
				<path id="XMLID_347_" style="fill:#E25D25;" d="M614.4,645.9l-2.9,0.9v-3c0-1.1-2.3-1.1-2.3,0v3l-2.9-0.9
					c-1-0.3-1.7,1.8-0.7,2.1l2.9,0.9l-1.8,2.4c-0.6,0.9,1.2,2.2,1.8,1.3l1.8-2.4l1.8,2.4c0.6,0.9,2.5-0.5,1.8-1.3l-1.8-2.4l2.9-0.9
					C616.1,647.7,615.5,645.6,614.4,645.9"/>
				<path id="XMLID_346_" style="fill:#E25D25;" d="M657.8,689.2l-2.9,0.9v-3c0-1.1-2.3-1.1-2.3,0v3l-2.9-0.9
					c-1-0.3-1.7,1.8-0.7,2.1l2.9,0.9l-1.8,2.4c-0.6,0.9,1.2,2.2,1.8,1.3l1.8-2.4l1.8,2.4c0.6,0.9,2.5-0.5,1.8-1.3l-1.8-2.4l2.9-0.9
					C659.5,691,658.8,688.9,657.8,689.2"/>
				<path id="XMLID_345_" style="fill:#E25D25;" d="M611.2,687.9c-0.3-0.2-1.3-0.2-1.6,0c-1.4,1.1-2.9,4.1-3.8,6.6
					c-0.2,0.7,2.2,0.7,2.5,0c0.6-1.6,1.3-3,2.2-4.5c0.9,1.5,1.6,2.9,2.2,4.5c0.2,0.7,2.7,0.7,2.5,0C614.1,692,612.6,689,611.2,687.9
					"/>
				<path id="XMLID_344_" style="fill:#E25D25;" d="M654.5,601.2c-0.3-0.2-1.3-0.2-1.6,0c-1.4,1.1-2.9,4.1-3.8,6.6
					c-0.2,0.7,2.2,0.7,2.5,0c0.6-1.6,1.3-3,2.2-4.5c0.9,1.5,1.6,2.9,2.2,4.5c0.2,0.7,2.7,0.7,2.5,0
					C657.4,605.3,655.9,602.3,654.5,601.2"/>
			</g>
			<g id="XMLID_332_" style="clip-path:url(#SVGID_2_);">
				<rect id="XMLID_342_" x="421.5" y="-44.3" style="fill:none;" width="125.9" height="125.9"/>
				<path id="XMLID_341_" style="fill:#E25D25;" d="M441.9,15.1c-0.3-0.2-1.3-0.2-1.6,0c-1.4,1.1-2.9,4.1-3.8,6.6
					c-0.2,0.7,2.2,0.7,2.5,0c0.6-1.6,1.3-3,2.2-4.5c0.9,1.5,1.6,2.9,2.2,4.5c0.2,0.7,2.7,0.7,2.5,0
					C444.9,19.3,443.3,16.3,441.9,15.1"/>
				<path id="XMLID_340_" style="fill:#E25D25;" d="M483.1-19.8c2.2-1.2,3.8-3.6,5.1-6.6c0.6-1.6-1.6-4.2-2.4-2.8
					c-1.4,2.4-2.6,3.6-4.6,4.7C479.7-23.7,481.6-19,483.1-19.8"/>
				<path id="XMLID_339_" style="fill:#E25D25;" d="M445.2-26.8l-2.9,0.9v-3c0-1.1-2.3-1.1-2.3,0v3l-2.9-0.9c-1-0.3-1.7,1.8-0.7,2.1
					l2.9,0.9l-1.8,2.4c-0.6,0.9,1.2,2.2,1.8,1.3l1.8-2.4L443-20c0.6,0.9,2.5-0.5,1.8-1.3l-1.8-2.4l2.9-0.9
					C446.9-25,446.3-27.2,445.2-26.8"/>
				<path id="XMLID_338_" style="fill:#E25D25;" d="M439.7,66.8c2.2-1.2,3.8-3.6,5.1-6.6c0.6-1.6-1.6-4.2-2.4-2.8
					c-1.4,2.4-2.6,3.6-4.6,4.7C436.4,62.9,438.2,67.7,439.7,66.8"/>
				<path id="XMLID_337_" style="fill:#E25D25;" d="M526.4,23.5c2.2-1.2,3.8-3.6,5.1-6.6c0.6-1.6-1.6-4.2-2.4-2.8
					c-1.4,2.4-2.6,3.6-4.6,4.7C523,19.6,524.9,24.3,526.4,23.5"/>
				<path id="XMLID_336_" style="fill:#E25D25;" d="M488.6,16.5l-2.9,0.9v-3c0-1.1-2.3-1.1-2.3,0v3l-2.9-0.9c-1-0.3-1.7,1.8-0.7,2.1
					l2.9,0.9l-1.8,2.4c-0.6,0.9,1.2,2.2,1.8,1.3l1.8-2.4l1.8,2.4c0.6,0.9,2.5-0.5,1.8-1.3l-1.8-2.4l2.9-0.9
					C490.3,18.3,489.6,16.2,488.6,16.5"/>
				<path id="XMLID_335_" style="fill:#E25D25;" d="M531.9,59.8l-2.9,0.9v-3c0-1.1-2.3-1.1-2.3,0v3l-2.9-0.9c-1-0.3-1.7,1.8-0.7,2.1
					l2.9,0.9l-1.8,2.4c-0.6,0.9,1.2,2.2,1.8,1.3l1.8-2.4l1.8,2.4c0.6,0.9,2.5-0.5,1.8-1.3l-1.8-2.4l2.9-0.9
					C533.6,61.7,532.9,59.5,531.9,59.8"/>
				<path id="XMLID_334_" style="fill:#E25D25;" d="M485.3,58.5c-0.3-0.2-1.3-0.2-1.6,0c-1.4,1.1-2.9,4.1-3.8,6.6
					c-0.2,0.7,2.2,0.7,2.5,0c0.6-1.6,1.3-3,2.2-4.5c0.9,1.5,1.6,2.9,2.2,4.5c0.2,0.7,2.7,0.7,2.5,0
					C488.2,62.6,486.7,59.6,485.3,58.5"/>
				<path id="XMLID_333_" style="fill:#E25D25;" d="M528.6-28.2c-0.3-0.2-1.3-0.2-1.6,0c-1.4,1.1-2.9,4.1-3.8,6.6
					c-0.2,0.7,2.2,0.7,2.5,0c0.6-1.6,1.3-3,2.2-4.5c0.9,1.5,1.6,2.9,2.2,4.5c0.2,0.7,2.7,0.7,2.5,0C531.5-24,530-27,528.6-28.2"/>
			</g>
			<g id="XMLID_321_" style="clip-path:url(#SVGID_2_);">
				<rect id="XMLID_331_" x="421.5" y="81.6" style="fill:none;" width="125.9" height="125.9"/>
				<path id="XMLID_330_" style="fill:#E25D25;" d="M441.9,141c-0.3-0.2-1.3-0.2-1.6,0c-1.4,1.1-2.9,4.1-3.8,6.6
					c-0.2,0.7,2.2,0.7,2.5,0c0.6-1.6,1.3-3,2.2-4.5c0.9,1.5,1.6,2.9,2.2,4.5c0.2,0.7,2.7,0.7,2.5,0
					C444.9,145.2,443.3,142.2,441.9,141"/>
				<path id="XMLID_329_" style="fill:#E25D25;" d="M483.1,106c2.2-1.2,3.8-3.6,5.1-6.6c0.6-1.6-1.6-4.2-2.4-2.8
					c-1.4,2.4-2.6,3.6-4.6,4.7C479.7,102.1,481.6,106.9,483.1,106"/>
				<path id="XMLID_328_" style="fill:#E25D25;" d="M445.2,99.1l-2.9,0.9v-3c0-1.1-2.3-1.1-2.3,0v3l-2.9-0.9c-1-0.3-1.7,1.8-0.7,2.1
					l2.9,0.9l-1.8,2.4c-0.6,0.9,1.2,2.2,1.8,1.3l1.8-2.4l1.8,2.4c0.6,0.9,2.5-0.5,1.8-1.3l-1.8-2.4l2.9-0.9
					C446.9,100.9,446.3,98.7,445.2,99.1"/>
				<path id="XMLID_327_" style="fill:#E25D25;" d="M439.7,192.7c2.2-1.2,3.8-3.6,5.1-6.6c0.6-1.6-1.6-4.2-2.4-2.8
					c-1.4,2.4-2.6,3.6-4.6,4.7C436.4,188.8,438.2,193.6,439.7,192.7"/>
				<path id="XMLID_326_" style="fill:#E25D25;" d="M526.4,149.4c2.2-1.2,3.8-3.6,5.1-6.6c0.6-1.6-1.6-4.2-2.4-2.8
					c-1.4,2.4-2.6,3.6-4.6,4.7C523,145.5,524.9,150.2,526.4,149.4"/>
				<path id="XMLID_325_" style="fill:#E25D25;" d="M488.6,142.4l-2.9,0.9v-3c0-1.1-2.3-1.1-2.3,0v3l-2.9-0.9
					c-1-0.3-1.7,1.8-0.7,2.1l2.9,0.9l-1.8,2.4c-0.6,0.9,1.2,2.2,1.8,1.3l1.8-2.4l1.8,2.4c0.6,0.9,2.5-0.5,1.8-1.3l-1.8-2.4l2.9-0.9
					C490.3,144.2,489.6,142.1,488.6,142.4"/>
				<path id="XMLID_324_" style="fill:#E25D25;" d="M531.9,185.7l-2.9,0.9v-3c0-1.1-2.3-1.1-2.3,0v3l-2.9-0.9
					c-1-0.3-1.7,1.8-0.7,2.1l2.9,0.9l-1.8,2.4c-0.6,0.9,1.2,2.2,1.8,1.3l1.8-2.4l1.8,2.4c0.6,0.9,2.5-0.5,1.8-1.3l-1.8-2.4l2.9-0.9
					C533.6,187.5,532.9,185.4,531.9,185.7"/>
				<path id="XMLID_323_" style="fill:#E25D25;" d="M485.3,184.4c-0.3-0.2-1.3-0.2-1.6,0c-1.4,1.1-2.9,4.1-3.8,6.6
					c-0.2,0.7,2.2,0.7,2.5,0c0.6-1.6,1.3-3,2.2-4.5c0.9,1.5,1.6,2.9,2.2,4.5c0.2,0.7,2.7,0.7,2.5,0
					C488.2,188.5,486.7,185.5,485.3,184.4"/>
				<path id="XMLID_322_" style="fill:#E25D25;" d="M528.6,97.7c-0.3-0.2-1.3-0.2-1.6,0c-1.4,1.1-2.9,4.1-3.8,6.6
					c-0.2,0.7,2.2,0.7,2.5,0c0.6-1.6,1.3-3,2.2-4.5c0.9,1.5,1.6,2.9,2.2,4.5c0.2,0.7,2.7,0.7,2.5,0C531.5,101.8,530,98.8,528.6,97.7
					"/>
			</g>
			<g id="XMLID_310_" style="clip-path:url(#SVGID_2_);">
				<rect id="XMLID_320_" x="421.5" y="207.5" style="fill:none;" width="125.9" height="125.9"/>
				<path id="XMLID_319_" style="fill:#E25D25;" d="M441.9,266.9c-0.3-0.2-1.3-0.2-1.6,0c-1.4,1.1-2.9,4.1-3.8,6.6
					c-0.2,0.7,2.2,0.7,2.5,0c0.6-1.6,1.3-3,2.2-4.5c0.9,1.5,1.6,2.9,2.2,4.5c0.2,0.7,2.7,0.7,2.5,0C444.9,271,443.3,268,441.9,266.9
					"/>
				<path id="XMLID_318_" style="fill:#E25D25;" d="M483.1,231.9c2.2-1.2,3.8-3.6,5.1-6.6c0.6-1.6-1.6-4.2-2.4-2.8
					c-1.4,2.4-2.6,3.6-4.6,4.7C479.7,228,481.6,232.8,483.1,231.9"/>
				<path id="XMLID_317_" style="fill:#E25D25;" d="M445.2,224.9l-2.9,0.9v-3c0-1.1-2.3-1.1-2.3,0v3l-2.9-0.9
					c-1-0.3-1.7,1.8-0.7,2.1l2.9,0.9l-1.8,2.4c-0.6,0.9,1.2,2.2,1.8,1.3l1.8-2.4l1.8,2.4c0.6,0.9,2.5-0.5,1.8-1.3L443,228l2.9-0.9
					C446.9,226.7,446.3,224.6,445.2,224.9"/>
				<path id="XMLID_316_" style="fill:#E25D25;" d="M439.7,318.6c2.2-1.2,3.8-3.6,5.1-6.6c0.6-1.6-1.6-4.2-2.4-2.8
					c-1.4,2.4-2.6,3.6-4.6,4.7C436.4,314.7,438.2,319.4,439.7,318.6"/>
				<path id="XMLID_315_" style="fill:#E25D25;" d="M526.4,275.3c2.2-1.2,3.8-3.6,5.1-6.6c0.6-1.6-1.6-4.2-2.4-2.8
					c-1.4,2.4-2.6,3.6-4.6,4.7C523,271.4,524.9,276.1,526.4,275.3"/>
				<path id="XMLID_314_" style="fill:#E25D25;" d="M488.6,268.3l-2.9,0.9v-3c0-1.1-2.3-1.1-2.3,0v3l-2.9-0.9
					c-1-0.3-1.7,1.8-0.7,2.1l2.9,0.9l-1.8,2.4c-0.6,0.9,1.2,2.2,1.8,1.3l1.8-2.4l1.8,2.4c0.6,0.9,2.5-0.5,1.8-1.3l-1.8-2.4l2.9-0.9
					C490.3,270.1,489.6,267.9,488.6,268.3"/>
				<path id="XMLID_313_" style="fill:#E25D25;" d="M531.9,311.6l-2.9,0.9v-3c0-1.1-2.3-1.1-2.3,0v3l-2.9-0.9
					c-1-0.3-1.7,1.8-0.7,2.1l2.9,0.9l-1.8,2.4c-0.6,0.9,1.2,2.2,1.8,1.3l1.8-2.4l1.8,2.4c0.6,0.9,2.5-0.5,1.8-1.3l-1.8-2.4l2.9-0.9
					C533.6,313.4,532.9,311.3,531.9,311.6"/>
				<path id="XMLID_312_" style="fill:#E25D25;" d="M485.3,310.2c-0.3-0.2-1.3-0.2-1.6,0c-1.4,1.1-2.9,4.1-3.8,6.6
					c-0.2,0.7,2.2,0.7,2.5,0c0.6-1.6,1.3-3,2.2-4.5c0.9,1.5,1.6,2.9,2.2,4.5c0.2,0.7,2.7,0.7,2.5,0
					C488.2,314.4,486.7,311.4,485.3,310.2"/>
				<path id="XMLID_311_" style="fill:#E25D25;" d="M528.6,223.6c-0.3-0.2-1.3-0.2-1.6,0c-1.4,1.1-2.9,4.1-3.8,6.6
					c-0.2,0.7,2.2,0.7,2.5,0c0.6-1.6,1.3-3,2.2-4.5c0.9,1.5,1.6,2.9,2.2,4.5c0.2,0.7,2.7,0.7,2.5,0
					C531.5,227.7,530,224.7,528.6,223.6"/>
			</g>
			<g id="XMLID_299_" style="clip-path:url(#SVGID_2_);">
				<rect id="XMLID_309_" x="421.5" y="333.3" style="fill:none;" width="125.9" height="125.9"/>
				<path id="XMLID_308_" style="fill:#E25D25;" d="M441.9,392.8c-0.3-0.2-1.3-0.2-1.6,0c-1.4,1.1-2.9,4.1-3.8,6.6
					c-0.2,0.7,2.2,0.7,2.5,0c0.6-1.6,1.3-3,2.2-4.5c0.9,1.5,1.6,2.9,2.2,4.5c0.2,0.7,2.7,0.7,2.5,0
					C444.9,396.9,443.3,393.9,441.9,392.8"/>
				<path id="XMLID_307_" style="fill:#E25D25;" d="M483.1,357.8c2.2-1.2,3.8-3.6,5.1-6.6c0.6-1.6-1.6-4.2-2.4-2.8
					c-1.4,2.4-2.6,3.6-4.6,4.7C479.7,353.9,481.6,358.6,483.1,357.8"/>
				<path id="XMLID_306_" style="fill:#E25D25;" d="M445.2,350.8l-2.9,0.9v-3c0-1.1-2.3-1.1-2.3,0v3l-2.9-0.9
					c-1-0.3-1.7,1.8-0.7,2.1l2.9,0.9l-1.8,2.4c-0.6,0.9,1.2,2.2,1.8,1.3l1.8-2.4l1.8,2.4c0.6,0.9,2.5-0.5,1.8-1.3l-1.8-2.4l2.9-0.9
					C446.9,352.6,446.3,350.5,445.2,350.8"/>
				<path id="XMLID_305_" style="fill:#E25D25;" d="M439.7,444.5c2.2-1.2,3.8-3.6,5.1-6.6c0.6-1.6-1.6-4.2-2.4-2.8
					c-1.4,2.4-2.6,3.6-4.6,4.7C436.4,440.6,438.2,445.3,439.7,444.5"/>
				<path id="XMLID_304_" style="fill:#E25D25;" d="M526.4,401.1c2.2-1.2,3.8-3.6,5.1-6.6c0.6-1.6-1.6-4.2-2.4-2.8
					c-1.4,2.4-2.6,3.6-4.6,4.7C523,397.2,524.9,402,526.4,401.1"/>
				<path id="XMLID_303_" style="fill:#E25D25;" d="M488.6,394.1l-2.9,0.9v-3c0-1.1-2.3-1.1-2.3,0v3l-2.9-0.9
					c-1-0.3-1.7,1.8-0.7,2.1l2.9,0.9l-1.8,2.4c-0.6,0.9,1.2,2.2,1.8,1.3l1.8-2.4l1.8,2.4c0.6,0.9,2.5-0.5,1.8-1.3l-1.8-2.4l2.9-0.9
					C490.3,396,489.6,393.8,488.6,394.1"/>
				<path id="XMLID_302_" style="fill:#E25D25;" d="M531.9,437.5l-2.9,0.9v-3c0-1.1-2.3-1.1-2.3,0v3l-2.9-0.9
					c-1-0.3-1.7,1.8-0.7,2.1l2.9,0.9l-1.8,2.4c-0.6,0.9,1.2,2.2,1.8,1.3l1.8-2.4l1.8,2.4c0.6,0.9,2.5-0.5,1.8-1.3l-1.8-2.4l2.9-0.9
					C533.6,439.3,532.9,437.1,531.9,437.5"/>
				<path id="XMLID_301_" style="fill:#E25D25;" d="M485.3,436.1c-0.3-0.2-1.3-0.2-1.6,0c-1.4,1.1-2.9,4.1-3.8,6.6
					c-0.2,0.7,2.2,0.7,2.5,0c0.6-1.6,1.3-3,2.2-4.5c0.9,1.5,1.6,2.9,2.2,4.5c0.2,0.7,2.7,0.7,2.5,0
					C488.2,440.3,486.7,437.3,485.3,436.1"/>
				<path id="XMLID_300_" style="fill:#E25D25;" d="M528.6,349.4c-0.3-0.2-1.3-0.2-1.6,0c-1.4,1.1-2.9,4.1-3.8,6.6
					c-0.2,0.7,2.2,0.7,2.5,0c0.6-1.6,1.3-3,2.2-4.5c0.9,1.5,1.6,2.9,2.2,4.5c0.2,0.7,2.7,0.7,2.5,0
					C531.5,353.6,530,350.6,528.6,349.4"/>
			</g>
			<g id="XMLID_288_" style="clip-path:url(#SVGID_2_);">
				<rect id="XMLID_298_" x="421.5" y="459.2" style="fill:none;" width="125.9" height="125.9"/>
				<path id="XMLID_297_" style="fill:#E25D25;" d="M441.9,518.7c-0.3-0.2-1.3-0.2-1.6,0c-1.4,1.1-2.9,4.1-3.8,6.6
					c-0.2,0.7,2.2,0.7,2.5,0c0.6-1.6,1.3-3,2.2-4.5c0.9,1.5,1.6,2.9,2.2,4.5c0.2,0.7,2.7,0.7,2.5,0
					C444.9,522.8,443.3,519.8,441.9,518.7"/>
				<path id="XMLID_296_" style="fill:#E25D25;" d="M483.1,483.7c2.2-1.2,3.8-3.6,5.1-6.6c0.6-1.6-1.6-4.2-2.4-2.8
					c-1.4,2.4-2.6,3.6-4.6,4.7C479.7,479.8,481.6,484.5,483.1,483.7"/>
				<path id="XMLID_295_" style="fill:#E25D25;" d="M445.2,476.7l-2.9,0.9v-3c0-1.1-2.3-1.1-2.3,0v3l-2.9-0.9
					c-1-0.3-1.7,1.8-0.7,2.1l2.9,0.9l-1.8,2.4c-0.6,0.9,1.2,2.2,1.8,1.3l1.8-2.4l1.8,2.4c0.6,0.9,2.5-0.5,1.8-1.3l-1.8-2.4l2.9-0.9
					C446.9,478.5,446.3,476.4,445.2,476.7"/>
				<path id="XMLID_294_" style="fill:#E25D25;" d="M439.7,570.3c2.2-1.2,3.8-3.6,5.1-6.6c0.6-1.6-1.6-4.2-2.4-2.8
					c-1.4,2.4-2.6,3.6-4.6,4.7C436.4,566.4,438.2,571.2,439.7,570.3"/>
				<path id="XMLID_293_" style="fill:#E25D25;" d="M526.4,527c2.2-1.2,3.8-3.6,5.1-6.6c0.6-1.6-1.6-4.2-2.4-2.8
					c-1.4,2.4-2.6,3.6-4.6,4.7C523,523.1,524.9,527.9,526.4,527"/>
				<path id="XMLID_292_" style="fill:#E25D25;" d="M488.6,520l-2.9,0.9v-3c0-1.1-2.3-1.1-2.3,0v3l-2.9-0.9c-1-0.3-1.7,1.8-0.7,2.1
					l2.9,0.9l-1.8,2.4c-0.6,0.9,1.2,2.2,1.8,1.3l1.8-2.4l1.8,2.4c0.6,0.9,2.5-0.5,1.8-1.3l-1.8-2.4l2.9-0.9
					C490.3,521.8,489.6,519.7,488.6,520"/>
				<path id="XMLID_291_" style="fill:#E25D25;" d="M531.9,563.4l-2.9,0.9v-3c0-1.1-2.3-1.1-2.3,0v3l-2.9-0.9
					c-1-0.3-1.7,1.8-0.7,2.1l2.9,0.9l-1.8,2.4c-0.6,0.9,1.2,2.2,1.8,1.3l1.8-2.4l1.8,2.4c0.6,0.9,2.5-0.5,1.8-1.3l-1.8-2.4l2.9-0.9
					C533.6,565.2,532.9,563,531.9,563.4"/>
				<path id="XMLID_290_" style="fill:#E25D25;" d="M485.3,562c-0.3-0.2-1.3-0.2-1.6,0c-1.4,1.1-2.9,4.1-3.8,6.6
					c-0.2,0.7,2.2,0.7,2.5,0c0.6-1.6,1.3-3,2.2-4.5c0.9,1.5,1.6,2.9,2.2,4.5c0.2,0.7,2.7,0.7,2.5,0
					C488.2,566.1,486.7,563.1,485.3,562"/>
				<path id="XMLID_289_" style="fill:#E25D25;" d="M528.6,475.3c-0.3-0.2-1.3-0.2-1.6,0c-1.4,1.1-2.9,4.1-3.8,6.6
					c-0.2,0.7,2.2,0.7,2.5,0c0.6-1.6,1.3-3,2.2-4.5c0.9,1.5,1.6,2.9,2.2,4.5c0.2,0.7,2.7,0.7,2.5,0
					C531.5,479.5,530,476.5,528.6,475.3"/>
			</g>
			<g id="XMLID_277_" style="clip-path:url(#SVGID_2_);">
				<rect id="XMLID_287_" x="421.5" y="585.1" style="fill:none;" width="125.9" height="125.9"/>
				<path id="XMLID_286_" style="fill:#E25D25;" d="M441.9,644.5c-0.3-0.2-1.3-0.2-1.6,0c-1.4,1.1-2.9,4.1-3.8,6.6
					c-0.2,0.7,2.2,0.7,2.5,0c0.6-1.6,1.3-3,2.2-4.5c0.9,1.5,1.6,2.9,2.2,4.5c0.2,0.7,2.7,0.7,2.5,0
					C444.9,648.7,443.3,645.7,441.9,644.5"/>
				<path id="XMLID_285_" style="fill:#E25D25;" d="M483.1,609.6c2.2-1.2,3.8-3.6,5.1-6.6c0.6-1.6-1.6-4.2-2.4-2.8
					c-1.4,2.4-2.6,3.6-4.6,4.7C479.7,605.7,481.6,610.4,483.1,609.6"/>
				<path id="XMLID_284_" style="fill:#E25D25;" d="M445.2,602.6l-2.9,0.9v-3c0-1.1-2.3-1.1-2.3,0v3l-2.9-0.9
					c-1-0.3-1.7,1.8-0.7,2.1l2.9,0.9l-1.8,2.4c-0.6,0.9,1.2,2.2,1.8,1.3l1.8-2.4l1.8,2.4c0.6,0.9,2.5-0.5,1.8-1.3l-1.8-2.4l2.9-0.9
					C446.9,604.4,446.3,602.2,445.2,602.6"/>
				<path id="XMLID_283_" style="fill:#E25D25;" d="M439.7,696.2c2.2-1.2,3.8-3.6,5.1-6.6c0.6-1.6-1.6-4.2-2.4-2.8
					c-1.4,2.4-2.6,3.6-4.6,4.7C436.4,692.3,438.2,697.1,439.7,696.2"/>
				<path id="XMLID_282_" style="fill:#E25D25;" d="M526.4,652.9c2.2-1.2,3.8-3.6,5.1-6.6c0.6-1.6-1.6-4.2-2.4-2.8
					c-1.4,2.4-2.6,3.6-4.6,4.7C523,649,524.9,653.7,526.4,652.9"/>
				<path id="XMLID_281_" style="fill:#E25D25;" d="M488.6,645.9l-2.9,0.9v-3c0-1.1-2.3-1.1-2.3,0v3l-2.9-0.9
					c-1-0.3-1.7,1.8-0.7,2.1l2.9,0.9l-1.8,2.4c-0.6,0.9,1.2,2.2,1.8,1.3l1.8-2.4l1.8,2.4c0.6,0.9,2.5-0.5,1.8-1.3l-1.8-2.4l2.9-0.9
					C490.3,647.7,489.6,645.6,488.6,645.9"/>
				<path id="XMLID_280_" style="fill:#E25D25;" d="M531.9,689.2l-2.9,0.9v-3c0-1.1-2.3-1.1-2.3,0v3l-2.9-0.9
					c-1-0.3-1.7,1.8-0.7,2.1l2.9,0.9l-1.8,2.4c-0.6,0.9,1.2,2.2,1.8,1.3l1.8-2.4l1.8,2.4c0.6,0.9,2.5-0.5,1.8-1.3l-1.8-2.4l2.9-0.9
					C533.6,691,532.9,688.9,531.9,689.2"/>
				<path id="XMLID_279_" style="fill:#E25D25;" d="M485.3,687.9c-0.3-0.2-1.3-0.2-1.6,0c-1.4,1.1-2.9,4.1-3.8,6.6
					c-0.2,0.7,2.2,0.7,2.5,0c0.6-1.6,1.3-3,2.2-4.5c0.9,1.5,1.6,2.9,2.2,4.5c0.2,0.7,2.7,0.7,2.5,0C488.2,692,486.7,689,485.3,687.9
					"/>
				<path id="XMLID_278_" style="fill:#E25D25;" d="M528.6,601.2c-0.3-0.2-1.3-0.2-1.6,0c-1.4,1.1-2.9,4.1-3.8,6.6
					c-0.2,0.7,2.2,0.7,2.5,0c0.6-1.6,1.3-3,2.2-4.5c0.9,1.5,1.6,2.9,2.2,4.5c0.2,0.7,2.7,0.7,2.5,0
					C531.5,605.3,530,602.3,528.6,601.2"/>
			</g>
			<g id="XMLID_266_" style="clip-path:url(#SVGID_2_);">
				<rect id="XMLID_276_" x="295.7" y="-44.3" style="fill:none;" width="125.9" height="125.9"/>
				<path id="XMLID_275_" style="fill:#E25D25;" d="M316,15.1c-0.3-0.2-1.3-0.2-1.6,0c-1.4,1.1-2.9,4.1-3.8,6.6
					c-0.2,0.7,2.2,0.7,2.5,0c0.6-1.6,1.3-3,2.2-4.5c0.9,1.5,1.6,2.9,2.2,4.5c0.2,0.7,2.7,0.7,2.5,0C319,19.3,317.5,16.3,316,15.1"/>
				<path id="XMLID_274_" style="fill:#E25D25;" d="M357.2-19.8c2.2-1.2,3.8-3.6,5.1-6.6c0.6-1.6-1.6-4.2-2.4-2.8
					c-1.4,2.4-2.6,3.6-4.6,4.7C353.8-23.7,355.7-19,357.2-19.8"/>
				<path id="XMLID_273_" style="fill:#E25D25;" d="M319.4-26.8l-2.9,0.9v-3c0-1.1-2.3-1.1-2.3,0v3l-2.9-0.9c-1-0.3-1.7,1.8-0.7,2.1
					l2.9,0.9l-1.8,2.4c-0.6,0.9,1.2,2.2,1.8,1.3l1.8-2.4l1.8,2.4c0.6,0.9,2.5-0.5,1.8-1.3l-1.8-2.4l2.9-0.9
					C321.1-25,320.4-27.2,319.4-26.8"/>
				<path id="XMLID_272_" style="fill:#E25D25;" d="M313.9,66.8c2.2-1.2,3.8-3.6,5.1-6.6c0.6-1.6-1.6-4.2-2.4-2.8
					c-1.4,2.4-2.6,3.6-4.6,4.7C310.5,62.9,312.4,67.7,313.9,66.8"/>
				<path id="XMLID_271_" style="fill:#E25D25;" d="M400.5,23.5c2.2-1.2,3.8-3.6,5.1-6.6c0.6-1.6-1.6-4.2-2.4-2.8
					c-1.4,2.4-2.6,3.6-4.6,4.7C397.2,19.6,399,24.3,400.5,23.5"/>
				<path id="XMLID_270_" style="fill:#E25D25;" d="M362.7,16.5l-2.9,0.9v-3c0-1.1-2.3-1.1-2.3,0v3l-2.9-0.9c-1-0.3-1.7,1.8-0.7,2.1
					l2.9,0.9l-1.8,2.4c-0.6,0.9,1.2,2.2,1.8,1.3l1.8-2.4l1.8,2.4c0.6,0.9,2.5-0.5,1.8-1.3l-1.8-2.4l2.9-0.9
					C364.4,18.3,363.7,16.2,362.7,16.5"/>
				<path id="XMLID_269_" style="fill:#E25D25;" d="M406,59.8l-2.9,0.9v-3c0-1.1-2.3-1.1-2.3,0v3l-2.9-0.9c-1-0.3-1.7,1.8-0.7,2.1
					l2.9,0.9l-1.8,2.4c-0.6,0.9,1.2,2.2,1.8,1.3l1.8-2.4l1.8,2.4c0.6,0.9,2.5-0.5,1.8-1.3l-1.8-2.4l2.9-0.9
					C407.7,61.7,407,59.5,406,59.8"/>
				<path id="XMLID_268_" style="fill:#E25D25;" d="M359.4,58.5c-0.3-0.2-1.3-0.2-1.6,0c-1.4,1.1-2.9,4.1-3.8,6.6
					c-0.2,0.7,2.2,0.7,2.5,0c0.6-1.6,1.3-3,2.2-4.5c0.9,1.5,1.6,2.9,2.2,4.5c0.2,0.7,2.7,0.7,2.5,0
					C362.3,62.6,360.8,59.6,359.4,58.5"/>
				<path id="XMLID_267_" style="fill:#E25D25;" d="M402.7-28.2c-0.3-0.2-1.3-0.2-1.6,0c-1.4,1.1-2.9,4.1-3.8,6.6
					c-0.2,0.7,2.2,0.7,2.5,0c0.6-1.6,1.3-3,2.2-4.5c0.9,1.5,1.6,2.9,2.2,4.5c0.2,0.7,2.7,0.7,2.5,0C405.6-24,404.1-27,402.7-28.2"/>
			</g>
			<g id="XMLID_255_" style="clip-path:url(#SVGID_2_);">
				<rect id="XMLID_265_" x="295.7" y="81.6" style="fill:none;" width="125.9" height="125.9"/>
				<path id="XMLID_264_" style="fill:#E25D25;" d="M316,141c-0.3-0.2-1.3-0.2-1.6,0c-1.4,1.1-2.9,4.1-3.8,6.6
					c-0.2,0.7,2.2,0.7,2.5,0c0.6-1.6,1.3-3,2.2-4.5c0.9,1.5,1.6,2.9,2.2,4.5c0.2,0.7,2.7,0.7,2.5,0C319,145.2,317.5,142.2,316,141"
					/>
				<path id="XMLID_263_" style="fill:#E25D25;" d="M357.2,106c2.2-1.2,3.8-3.6,5.1-6.6c0.6-1.6-1.6-4.2-2.4-2.8
					c-1.4,2.4-2.6,3.6-4.6,4.7C353.8,102.1,355.7,106.9,357.2,106"/>
				<path id="XMLID_262_" style="fill:#E25D25;" d="M319.4,99.1l-2.9,0.9v-3c0-1.1-2.3-1.1-2.3,0v3l-2.9-0.9c-1-0.3-1.7,1.8-0.7,2.1
					l2.9,0.9l-1.8,2.4c-0.6,0.9,1.2,2.2,1.8,1.3l1.8-2.4l1.8,2.4c0.6,0.9,2.5-0.5,1.8-1.3l-1.8-2.4l2.9-0.9
					C321.1,100.9,320.4,98.7,319.4,99.1"/>
				<path id="XMLID_261_" style="fill:#E25D25;" d="M313.9,192.7c2.2-1.2,3.8-3.6,5.1-6.6c0.6-1.6-1.6-4.2-2.4-2.8
					c-1.4,2.4-2.6,3.6-4.6,4.7C310.5,188.8,312.4,193.6,313.9,192.7"/>
				<path id="XMLID_260_" style="fill:#E25D25;" d="M400.5,149.4c2.2-1.2,3.8-3.6,5.1-6.6c0.6-1.6-1.6-4.2-2.4-2.8
					c-1.4,2.4-2.6,3.6-4.6,4.7C397.2,145.5,399,150.2,400.5,149.4"/>
				<path id="XMLID_259_" style="fill:#E25D25;" d="M362.7,142.4l-2.9,0.9v-3c0-1.1-2.3-1.1-2.3,0v3l-2.9-0.9
					c-1-0.3-1.7,1.8-0.7,2.1l2.9,0.9l-1.8,2.4c-0.6,0.9,1.2,2.2,1.8,1.3l1.8-2.4l1.8,2.4c0.6,0.9,2.5-0.5,1.8-1.3l-1.8-2.4l2.9-0.9
					C364.4,144.2,363.7,142.1,362.7,142.4"/>
				<path id="XMLID_258_" style="fill:#E25D25;" d="M406,185.7l-2.9,0.9v-3c0-1.1-2.3-1.1-2.3,0v3l-2.9-0.9c-1-0.3-1.7,1.8-0.7,2.1
					l2.9,0.9l-1.8,2.4c-0.6,0.9,1.2,2.2,1.8,1.3l1.8-2.4l1.8,2.4c0.6,0.9,2.5-0.5,1.8-1.3l-1.8-2.4l2.9-0.9
					C407.7,187.5,407,185.4,406,185.7"/>
				<path id="XMLID_257_" style="fill:#E25D25;" d="M359.4,184.4c-0.3-0.2-1.3-0.2-1.6,0c-1.4,1.1-2.9,4.1-3.8,6.6
					c-0.2,0.7,2.2,0.7,2.5,0c0.6-1.6,1.3-3,2.2-4.5c0.9,1.5,1.6,2.9,2.2,4.5c0.2,0.7,2.7,0.7,2.5,0
					C362.3,188.5,360.8,185.5,359.4,184.4"/>
				<path id="XMLID_256_" style="fill:#E25D25;" d="M402.7,97.7c-0.3-0.2-1.3-0.2-1.6,0c-1.4,1.1-2.9,4.1-3.8,6.6
					c-0.2,0.7,2.2,0.7,2.5,0c0.6-1.6,1.3-3,2.2-4.5c0.9,1.5,1.6,2.9,2.2,4.5c0.2,0.7,2.7,0.7,2.5,0
					C405.6,101.8,404.1,98.8,402.7,97.7"/>
			</g>
			<g id="XMLID_244_" style="clip-path:url(#SVGID_2_);">
				<rect id="XMLID_254_" x="295.7" y="207.5" style="fill:none;" width="125.9" height="125.9"/>
				<path id="XMLID_253_" style="fill:#E25D25;" d="M316,266.9c-0.3-0.2-1.3-0.2-1.6,0c-1.4,1.1-2.9,4.1-3.8,6.6
					c-0.2,0.7,2.2,0.7,2.5,0c0.6-1.6,1.3-3,2.2-4.5c0.9,1.5,1.6,2.9,2.2,4.5c0.2,0.7,2.7,0.7,2.5,0C319,271,317.5,268,316,266.9"/>
				<path id="XMLID_252_" style="fill:#E25D25;" d="M357.2,231.9c2.2-1.2,3.8-3.6,5.1-6.6c0.6-1.6-1.6-4.2-2.4-2.8
					c-1.4,2.4-2.6,3.6-4.6,4.7C353.8,228,355.7,232.8,357.2,231.9"/>
				<path id="XMLID_251_" style="fill:#E25D25;" d="M319.4,224.9l-2.9,0.9v-3c0-1.1-2.3-1.1-2.3,0v3l-2.9-0.9
					c-1-0.3-1.7,1.8-0.7,2.1l2.9,0.9l-1.8,2.4c-0.6,0.9,1.2,2.2,1.8,1.3l1.8-2.4l1.8,2.4c0.6,0.9,2.5-0.5,1.8-1.3l-1.8-2.4l2.9-0.9
					C321.1,226.7,320.4,224.6,319.4,224.9"/>
				<path id="XMLID_250_" style="fill:#E25D25;" d="M313.9,318.6c2.2-1.2,3.8-3.6,5.1-6.6c0.6-1.6-1.6-4.2-2.4-2.8
					c-1.4,2.4-2.6,3.6-4.6,4.7C310.5,314.7,312.4,319.4,313.9,318.6"/>
				<path id="XMLID_249_" style="fill:#E25D25;" d="M400.5,275.3c2.2-1.2,3.8-3.6,5.1-6.6c0.6-1.6-1.6-4.2-2.4-2.8
					c-1.4,2.4-2.6,3.6-4.6,4.7C397.2,271.4,399,276.1,400.5,275.3"/>
				<path id="XMLID_248_" style="fill:#E25D25;" d="M362.7,268.3l-2.9,0.9v-3c0-1.1-2.3-1.1-2.3,0v3l-2.9-0.9
					c-1-0.3-1.7,1.8-0.7,2.1l2.9,0.9l-1.8,2.4c-0.6,0.9,1.2,2.2,1.8,1.3l1.8-2.4l1.8,2.4c0.6,0.9,2.5-0.5,1.8-1.3l-1.8-2.4l2.9-0.9
					C364.4,270.1,363.7,267.9,362.7,268.3"/>
				<path id="XMLID_247_" style="fill:#E25D25;" d="M406,311.6l-2.9,0.9v-3c0-1.1-2.3-1.1-2.3,0v3l-2.9-0.9c-1-0.3-1.7,1.8-0.7,2.1
					l2.9,0.9l-1.8,2.4c-0.6,0.9,1.2,2.2,1.8,1.3l1.8-2.4l1.8,2.4c0.6,0.9,2.5-0.5,1.8-1.3l-1.8-2.4l2.9-0.9
					C407.7,313.4,407,311.3,406,311.6"/>
				<path id="XMLID_246_" style="fill:#E25D25;" d="M359.4,310.2c-0.3-0.2-1.3-0.2-1.6,0c-1.4,1.1-2.9,4.1-3.8,6.6
					c-0.2,0.7,2.2,0.7,2.5,0c0.6-1.6,1.3-3,2.2-4.5c0.9,1.5,1.6,2.9,2.2,4.5c0.2,0.7,2.7,0.7,2.5,0
					C362.3,314.4,360.8,311.4,359.4,310.2"/>
				<path id="XMLID_245_" style="fill:#E25D25;" d="M402.7,223.6c-0.3-0.2-1.3-0.2-1.6,0c-1.4,1.1-2.9,4.1-3.8,6.6
					c-0.2,0.7,2.2,0.7,2.5,0c0.6-1.6,1.3-3,2.2-4.5c0.9,1.5,1.6,2.9,2.2,4.5c0.2,0.7,2.7,0.7,2.5,0
					C405.6,227.7,404.1,224.7,402.7,223.6"/>
			</g>
			<g id="XMLID_233_" style="clip-path:url(#SVGID_2_);">
				<rect id="XMLID_243_" x="295.7" y="333.3" style="fill:none;" width="125.9" height="125.9"/>
				<path id="XMLID_242_" style="fill:#E25D25;" d="M316,392.8c-0.3-0.2-1.3-0.2-1.6,0c-1.4,1.1-2.9,4.1-3.8,6.6
					c-0.2,0.7,2.2,0.7,2.5,0c0.6-1.6,1.3-3,2.2-4.5c0.9,1.5,1.6,2.9,2.2,4.5c0.2,0.7,2.7,0.7,2.5,0C319,396.9,317.5,393.9,316,392.8
					"/>
				<path id="XMLID_241_" style="fill:#E25D25;" d="M357.2,357.8c2.2-1.2,3.8-3.6,5.1-6.6c0.6-1.6-1.6-4.2-2.4-2.8
					c-1.4,2.4-2.6,3.6-4.6,4.7C353.8,353.9,355.7,358.6,357.2,357.8"/>
				<path id="XMLID_240_" style="fill:#E25D25;" d="M319.4,350.8l-2.9,0.9v-3c0-1.1-2.3-1.1-2.3,0v3l-2.9-0.9
					c-1-0.3-1.7,1.8-0.7,2.1l2.9,0.9l-1.8,2.4c-0.6,0.9,1.2,2.2,1.8,1.3l1.8-2.4l1.8,2.4c0.6,0.9,2.5-0.5,1.8-1.3l-1.8-2.4l2.9-0.9
					C321.1,352.6,320.4,350.5,319.4,350.8"/>
				<path id="XMLID_239_" style="fill:#E25D25;" d="M313.9,444.5c2.2-1.2,3.8-3.6,5.1-6.6c0.6-1.6-1.6-4.2-2.4-2.8
					c-1.4,2.4-2.6,3.6-4.6,4.7C310.5,440.6,312.4,445.3,313.9,444.5"/>
				<path id="XMLID_238_" style="fill:#E25D25;" d="M400.5,401.1c2.2-1.2,3.8-3.6,5.1-6.6c0.6-1.6-1.6-4.2-2.4-2.8
					c-1.4,2.4-2.6,3.6-4.6,4.7C397.2,397.2,399,402,400.5,401.1"/>
				<path id="XMLID_237_" style="fill:#E25D25;" d="M362.7,394.1l-2.9,0.9v-3c0-1.1-2.3-1.1-2.3,0v3l-2.9-0.9
					c-1-0.3-1.7,1.8-0.7,2.1l2.9,0.9l-1.8,2.4c-0.6,0.9,1.2,2.2,1.8,1.3l1.8-2.4l1.8,2.4c0.6,0.9,2.5-0.5,1.8-1.3l-1.8-2.4l2.9-0.9
					C364.4,396,363.7,393.8,362.7,394.1"/>
				<path id="XMLID_236_" style="fill:#E25D25;" d="M406,437.5l-2.9,0.9v-3c0-1.1-2.3-1.1-2.3,0v3l-2.9-0.9c-1-0.3-1.7,1.8-0.7,2.1
					l2.9,0.9l-1.8,2.4c-0.6,0.9,1.2,2.2,1.8,1.3l1.8-2.4l1.8,2.4c0.6,0.9,2.5-0.5,1.8-1.3l-1.8-2.4l2.9-0.9
					C407.7,439.3,407,437.1,406,437.5"/>
				<path id="XMLID_235_" style="fill:#E25D25;" d="M359.4,436.1c-0.3-0.2-1.3-0.2-1.6,0c-1.4,1.1-2.9,4.1-3.8,6.6
					c-0.2,0.7,2.2,0.7,2.5,0c0.6-1.6,1.3-3,2.2-4.5c0.9,1.5,1.6,2.9,2.2,4.5c0.2,0.7,2.7,0.7,2.5,0
					C362.3,440.3,360.8,437.3,359.4,436.1"/>
				<path id="XMLID_234_" style="fill:#E25D25;" d="M402.7,349.4c-0.3-0.2-1.3-0.2-1.6,0c-1.4,1.1-2.9,4.1-3.8,6.6
					c-0.2,0.7,2.2,0.7,2.5,0c0.6-1.6,1.3-3,2.2-4.5c0.9,1.5,1.6,2.9,2.2,4.5c0.2,0.7,2.7,0.7,2.5,0
					C405.6,353.6,404.1,350.6,402.7,349.4"/>
			</g>
			<g id="XMLID_222_" style="clip-path:url(#SVGID_2_);">
				<rect id="XMLID_232_" x="295.7" y="459.2" style="fill:none;" width="125.9" height="125.9"/>
				<path id="XMLID_231_" style="fill:#E25D25;" d="M316,518.7c-0.3-0.2-1.3-0.2-1.6,0c-1.4,1.1-2.9,4.1-3.8,6.6
					c-0.2,0.7,2.2,0.7,2.5,0c0.6-1.6,1.3-3,2.2-4.5c0.9,1.5,1.6,2.9,2.2,4.5c0.2,0.7,2.7,0.7,2.5,0C319,522.8,317.5,519.8,316,518.7
					"/>
				<path id="XMLID_230_" style="fill:#E25D25;" d="M357.2,483.7c2.2-1.2,3.8-3.6,5.1-6.6c0.6-1.6-1.6-4.2-2.4-2.8
					c-1.4,2.4-2.6,3.6-4.6,4.7C353.8,479.8,355.7,484.5,357.2,483.7"/>
				<path id="XMLID_229_" style="fill:#E25D25;" d="M319.4,476.7l-2.9,0.9v-3c0-1.1-2.3-1.1-2.3,0v3l-2.9-0.9
					c-1-0.3-1.7,1.8-0.7,2.1l2.9,0.9l-1.8,2.4c-0.6,0.9,1.2,2.2,1.8,1.3l1.8-2.4l1.8,2.4c0.6,0.9,2.5-0.5,1.8-1.3l-1.8-2.4l2.9-0.9
					C321.1,478.5,320.4,476.4,319.4,476.7"/>
				<path id="XMLID_228_" style="fill:#E25D25;" d="M313.9,570.3c2.2-1.2,3.8-3.6,5.1-6.6c0.6-1.6-1.6-4.2-2.4-2.8
					c-1.4,2.4-2.6,3.6-4.6,4.7C310.5,566.4,312.4,571.2,313.9,570.3"/>
				<path id="XMLID_227_" style="fill:#E25D25;" d="M400.5,527c2.2-1.2,3.8-3.6,5.1-6.6c0.6-1.6-1.6-4.2-2.4-2.8
					c-1.4,2.4-2.6,3.6-4.6,4.7C397.2,523.1,399,527.9,400.5,527"/>
				<path id="XMLID_226_" style="fill:#E25D25;" d="M362.7,520l-2.9,0.9v-3c0-1.1-2.3-1.1-2.3,0v3l-2.9-0.9c-1-0.3-1.7,1.8-0.7,2.1
					l2.9,0.9l-1.8,2.4c-0.6,0.9,1.2,2.2,1.8,1.3l1.8-2.4l1.8,2.4c0.6,0.9,2.5-0.5,1.8-1.3l-1.8-2.4l2.9-0.9
					C364.4,521.8,363.7,519.7,362.7,520"/>
				<path id="XMLID_225_" style="fill:#E25D25;" d="M406,563.4l-2.9,0.9v-3c0-1.1-2.3-1.1-2.3,0v3l-2.9-0.9c-1-0.3-1.7,1.8-0.7,2.1
					l2.9,0.9l-1.8,2.4c-0.6,0.9,1.2,2.2,1.8,1.3l1.8-2.4l1.8,2.4c0.6,0.9,2.5-0.5,1.8-1.3l-1.8-2.4l2.9-0.9
					C407.7,565.2,407,563,406,563.4"/>
				<path id="XMLID_224_" style="fill:#E25D25;" d="M359.4,562c-0.3-0.2-1.3-0.2-1.6,0c-1.4,1.1-2.9,4.1-3.8,6.6
					c-0.2,0.7,2.2,0.7,2.5,0c0.6-1.6,1.3-3,2.2-4.5c0.9,1.5,1.6,2.9,2.2,4.5c0.2,0.7,2.7,0.7,2.5,0
					C362.3,566.1,360.8,563.1,359.4,562"/>
				<path id="XMLID_223_" style="fill:#E25D25;" d="M402.7,475.3c-0.3-0.2-1.3-0.2-1.6,0c-1.4,1.1-2.9,4.1-3.8,6.6
					c-0.2,0.7,2.2,0.7,2.5,0c0.6-1.6,1.3-3,2.2-4.5c0.9,1.5,1.6,2.9,2.2,4.5c0.2,0.7,2.7,0.7,2.5,0
					C405.6,479.5,404.1,476.5,402.7,475.3"/>
			</g>
			<g id="XMLID_211_" style="clip-path:url(#SVGID_2_);">
				<rect id="XMLID_221_" x="295.7" y="585.1" style="fill:none;" width="125.9" height="125.9"/>
				<path id="XMLID_220_" style="fill:#E25D25;" d="M316,644.5c-0.3-0.2-1.3-0.2-1.6,0c-1.4,1.1-2.9,4.1-3.8,6.6
					c-0.2,0.7,2.2,0.7,2.5,0c0.6-1.6,1.3-3,2.2-4.5c0.9,1.5,1.6,2.9,2.2,4.5c0.2,0.7,2.7,0.7,2.5,0C319,648.7,317.5,645.7,316,644.5
					"/>
				<path id="XMLID_219_" style="fill:#E25D25;" d="M357.2,609.6c2.2-1.2,3.8-3.6,5.1-6.6c0.6-1.6-1.6-4.2-2.4-2.8
					c-1.4,2.4-2.6,3.6-4.6,4.7C353.8,605.7,355.7,610.4,357.2,609.6"/>
				<path id="XMLID_218_" style="fill:#E25D25;" d="M319.4,602.6l-2.9,0.9v-3c0-1.1-2.3-1.1-2.3,0v3l-2.9-0.9
					c-1-0.3-1.7,1.8-0.7,2.1l2.9,0.9l-1.8,2.4c-0.6,0.9,1.2,2.2,1.8,1.3l1.8-2.4l1.8,2.4c0.6,0.9,2.5-0.5,1.8-1.3l-1.8-2.4l2.9-0.9
					C321.1,604.4,320.4,602.2,319.4,602.6"/>
				<path id="XMLID_217_" style="fill:#E25D25;" d="M313.9,696.2c2.2-1.2,3.8-3.6,5.1-6.6c0.6-1.6-1.6-4.2-2.4-2.8
					c-1.4,2.4-2.6,3.6-4.6,4.7C310.5,692.3,312.4,697.1,313.9,696.2"/>
				<path id="XMLID_216_" style="fill:#E25D25;" d="M400.5,652.9c2.2-1.2,3.8-3.6,5.1-6.6c0.6-1.6-1.6-4.2-2.4-2.8
					c-1.4,2.4-2.6,3.6-4.6,4.7C397.2,649,399,653.7,400.5,652.9"/>
				<path id="XMLID_215_" style="fill:#E25D25;" d="M362.7,645.9l-2.9,0.9v-3c0-1.1-2.3-1.1-2.3,0v3l-2.9-0.9
					c-1-0.3-1.7,1.8-0.7,2.1l2.9,0.9l-1.8,2.4c-0.6,0.9,1.2,2.2,1.8,1.3l1.8-2.4l1.8,2.4c0.6,0.9,2.5-0.5,1.8-1.3l-1.8-2.4l2.9-0.9
					C364.4,647.7,363.7,645.6,362.7,645.9"/>
				<path id="XMLID_214_" style="fill:#E25D25;" d="M406,689.2l-2.9,0.9v-3c0-1.1-2.3-1.1-2.3,0v3l-2.9-0.9c-1-0.3-1.7,1.8-0.7,2.1
					l2.9,0.9l-1.8,2.4c-0.6,0.9,1.2,2.2,1.8,1.3l1.8-2.4l1.8,2.4c0.6,0.9,2.5-0.5,1.8-1.3l-1.8-2.4l2.9-0.9
					C407.7,691,407,688.9,406,689.2"/>
				<path id="XMLID_213_" style="fill:#E25D25;" d="M359.4,687.9c-0.3-0.2-1.3-0.2-1.6,0c-1.4,1.1-2.9,4.1-3.8,6.6
					c-0.2,0.7,2.2,0.7,2.5,0c0.6-1.6,1.3-3,2.2-4.5c0.9,1.5,1.6,2.9,2.2,4.5c0.2,0.7,2.7,0.7,2.5,0C362.3,692,360.8,689,359.4,687.9
					"/>
				<path id="XMLID_212_" style="fill:#E25D25;" d="M402.7,601.2c-0.3-0.2-1.3-0.2-1.6,0c-1.4,1.1-2.9,4.1-3.8,6.6
					c-0.2,0.7,2.2,0.7,2.5,0c0.6-1.6,1.3-3,2.2-4.5c0.9,1.5,1.6,2.9,2.2,4.5c0.2,0.7,2.7,0.7,2.5,0
					C405.6,605.3,404.1,602.3,402.7,601.2"/>
			</g>
			<g id="XMLID_200_" style="clip-path:url(#SVGID_2_);">
				<rect id="XMLID_210_" x="169.8" y="-44.3" style="fill:none;" width="125.9" height="125.9"/>
				<path id="XMLID_209_" style="fill:#E25D25;" d="M190.2,15.1c-0.3-0.2-1.3-0.2-1.6,0c-1.4,1.1-2.9,4.1-3.8,6.6
					c-0.2,0.7,2.2,0.7,2.5,0c0.6-1.6,1.3-3,2.2-4.5c0.9,1.5,1.6,2.9,2.2,4.5c0.2,0.7,2.7,0.7,2.5,0
					C193.1,19.3,191.6,16.3,190.2,15.1"/>
				<path id="XMLID_208_" style="fill:#E25D25;" d="M231.3-19.8c2.2-1.2,3.8-3.6,5.1-6.6c0.6-1.6-1.6-4.2-2.4-2.8
					c-1.4,2.4-2.6,3.6-4.6,4.7C227.9-23.7,229.8-19,231.3-19.8"/>
				<path id="XMLID_207_" style="fill:#E25D25;" d="M193.5-26.8l-2.9,0.9v-3c0-1.1-2.3-1.1-2.3,0v3l-2.9-0.9c-1-0.3-1.7,1.8-0.7,2.1
					l2.9,0.9l-1.8,2.4c-0.6,0.9,1.2,2.2,1.8,1.3l1.8-2.4l1.8,2.4c0.6,0.9,2.5-0.5,1.8-1.3l-1.8-2.4l2.9-0.9
					C195.2-25,194.5-27.2,193.5-26.8"/>
				<path id="XMLID_206_" style="fill:#E25D25;" d="M188,66.8c2.2-1.2,3.8-3.6,5.1-6.6c0.6-1.6-1.6-4.2-2.4-2.8
					c-1.4,2.4-2.6,3.6-4.6,4.7C184.6,62.9,186.5,67.7,188,66.8"/>
				<path id="XMLID_205_" style="fill:#E25D25;" d="M274.6,23.5c2.2-1.2,3.8-3.6,5.1-6.6c0.6-1.6-1.6-4.2-2.4-2.8
					c-1.4,2.4-2.6,3.6-4.6,4.7C271.3,19.6,273.1,24.3,274.6,23.5"/>
				<path id="XMLID_204_" style="fill:#E25D25;" d="M236.8,16.5l-2.9,0.9v-3c0-1.1-2.3-1.1-2.3,0v3l-2.9-0.9c-1-0.3-1.7,1.8-0.7,2.1
					l2.9,0.9l-1.8,2.4c-0.6,0.9,1.2,2.2,1.8,1.3l1.8-2.4l1.8,2.4c0.6,0.9,2.5-0.5,1.8-1.3l-1.8-2.4l2.9-0.9
					C238.5,18.3,237.8,16.2,236.8,16.5"/>
				<path id="XMLID_203_" style="fill:#E25D25;" d="M280.1,59.8l-2.9,0.9v-3c0-1.1-2.3-1.1-2.3,0v3l-2.9-0.9c-1-0.3-1.7,1.8-0.7,2.1
					l2.9,0.9l-1.8,2.4c-0.6,0.9,1.2,2.2,1.8,1.3l1.8-2.4l1.8,2.4c0.6,0.9,2.5-0.5,1.8-1.3l-1.8-2.4l2.9-0.9
					C281.8,61.7,281.2,59.5,280.1,59.8"/>
				<path id="XMLID_202_" style="fill:#E25D25;" d="M233.5,58.5c-0.3-0.2-1.3-0.2-1.6,0c-1.4,1.1-2.9,4.1-3.8,6.6
					c-0.2,0.7,2.2,0.7,2.5,0c0.6-1.6,1.3-3,2.2-4.5c0.9,1.5,1.6,2.9,2.2,4.5c0.2,0.7,2.7,0.7,2.5,0
					C236.4,62.6,234.9,59.6,233.5,58.5"/>
				<path id="XMLID_201_" style="fill:#E25D25;" d="M276.8-28.2c-0.3-0.2-1.3-0.2-1.6,0c-1.4,1.1-2.9,4.1-3.8,6.6
					c-0.2,0.7,2.2,0.7,2.5,0c0.6-1.6,1.3-3,2.2-4.5c0.9,1.5,1.6,2.9,2.2,4.5c0.2,0.7,2.7,0.7,2.5,0C279.8-24,278.3-27,276.8-28.2"/>
			</g>
			<g id="XMLID_189_" style="clip-path:url(#SVGID_2_);">
				<rect id="XMLID_199_" x="169.8" y="81.6" style="fill:none;" width="125.9" height="125.9"/>
				<path id="XMLID_198_" style="fill:#E25D25;" d="M190.2,141c-0.3-0.2-1.3-0.2-1.6,0c-1.4,1.1-2.9,4.1-3.8,6.6
					c-0.2,0.7,2.2,0.7,2.5,0c0.6-1.6,1.3-3,2.2-4.5c0.9,1.5,1.6,2.9,2.2,4.5c0.2,0.7,2.7,0.7,2.5,0
					C193.1,145.2,191.6,142.2,190.2,141"/>
				<path id="XMLID_197_" style="fill:#E25D25;" d="M231.3,106c2.2-1.2,3.8-3.6,5.1-6.6c0.6-1.6-1.6-4.2-2.4-2.8
					c-1.4,2.4-2.6,3.6-4.6,4.7C227.9,102.1,229.8,106.9,231.3,106"/>
				<path id="XMLID_196_" style="fill:#E25D25;" d="M193.5,99.1l-2.9,0.9v-3c0-1.1-2.3-1.1-2.3,0v3l-2.9-0.9c-1-0.3-1.7,1.8-0.7,2.1
					l2.9,0.9l-1.8,2.4c-0.6,0.9,1.2,2.2,1.8,1.3l1.8-2.4l1.8,2.4c0.6,0.9,2.5-0.5,1.8-1.3l-1.8-2.4l2.9-0.9
					C195.2,100.9,194.5,98.7,193.5,99.1"/>
				<path id="XMLID_195_" style="fill:#E25D25;" d="M188,192.7c2.2-1.2,3.8-3.6,5.1-6.6c0.6-1.6-1.6-4.2-2.4-2.8
					c-1.4,2.4-2.6,3.6-4.6,4.7C184.6,188.8,186.5,193.6,188,192.7"/>
				<path id="XMLID_194_" style="fill:#E25D25;" d="M274.6,149.4c2.2-1.2,3.8-3.6,5.1-6.6c0.6-1.6-1.6-4.2-2.4-2.8
					c-1.4,2.4-2.6,3.6-4.6,4.7C271.3,145.5,273.1,150.2,274.6,149.4"/>
				<path id="XMLID_193_" style="fill:#E25D25;" d="M236.8,142.4l-2.9,0.9v-3c0-1.1-2.3-1.1-2.3,0v3l-2.9-0.9
					c-1-0.3-1.7,1.8-0.7,2.1l2.9,0.9l-1.8,2.4c-0.6,0.9,1.2,2.2,1.8,1.3l1.8-2.4l1.8,2.4c0.6,0.9,2.5-0.5,1.8-1.3l-1.8-2.4l2.9-0.9
					C238.5,144.2,237.8,142.1,236.8,142.4"/>
				<path id="XMLID_192_" style="fill:#E25D25;" d="M280.1,185.7l-2.9,0.9v-3c0-1.1-2.3-1.1-2.3,0v3l-2.9-0.9
					c-1-0.3-1.7,1.8-0.7,2.1l2.9,0.9l-1.8,2.4c-0.6,0.9,1.2,2.2,1.8,1.3l1.8-2.4l1.8,2.4c0.6,0.9,2.5-0.5,1.8-1.3l-1.8-2.4l2.9-0.9
					C281.8,187.5,281.2,185.4,280.1,185.7"/>
				<path id="XMLID_191_" style="fill:#E25D25;" d="M233.5,184.4c-0.3-0.2-1.3-0.2-1.6,0c-1.4,1.1-2.9,4.1-3.8,6.6
					c-0.2,0.7,2.2,0.7,2.5,0c0.6-1.6,1.3-3,2.2-4.5c0.9,1.5,1.6,2.9,2.2,4.5c0.2,0.7,2.7,0.7,2.5,0
					C236.4,188.5,234.9,185.5,233.5,184.4"/>
				<path id="XMLID_190_" style="fill:#E25D25;" d="M276.8,97.7c-0.3-0.2-1.3-0.2-1.6,0c-1.4,1.1-2.9,4.1-3.8,6.6
					c-0.2,0.7,2.2,0.7,2.5,0c0.6-1.6,1.3-3,2.2-4.5c0.9,1.5,1.6,2.9,2.2,4.5c0.2,0.7,2.7,0.7,2.5,0
					C279.8,101.8,278.3,98.8,276.8,97.7"/>
			</g>
			<g id="XMLID_178_" style="clip-path:url(#SVGID_2_);">
				<rect id="XMLID_188_" x="169.8" y="207.5" style="fill:none;" width="125.9" height="125.9"/>
				<path id="XMLID_187_" style="fill:#E25D25;" d="M190.2,266.9c-0.3-0.2-1.3-0.2-1.6,0c-1.4,1.1-2.9,4.1-3.8,6.6
					c-0.2,0.7,2.2,0.7,2.5,0c0.6-1.6,1.3-3,2.2-4.5c0.9,1.5,1.6,2.9,2.2,4.5c0.2,0.7,2.7,0.7,2.5,0C193.1,271,191.6,268,190.2,266.9
					"/>
				<path id="XMLID_186_" style="fill:#E25D25;" d="M231.3,231.9c2.2-1.2,3.8-3.6,5.1-6.6c0.6-1.6-1.6-4.2-2.4-2.8
					c-1.4,2.4-2.6,3.6-4.6,4.7C227.9,228,229.8,232.8,231.3,231.9"/>
				<path id="XMLID_185_" style="fill:#E25D25;" d="M193.5,224.9l-2.9,0.9v-3c0-1.1-2.3-1.1-2.3,0v3l-2.9-0.9
					c-1-0.3-1.7,1.8-0.7,2.1l2.9,0.9l-1.8,2.4c-0.6,0.9,1.2,2.2,1.8,1.3l1.8-2.4l1.8,2.4c0.6,0.9,2.5-0.5,1.8-1.3l-1.8-2.4l2.9-0.9
					C195.2,226.7,194.5,224.6,193.5,224.9"/>
				<path id="XMLID_184_" style="fill:#E25D25;" d="M188,318.6c2.2-1.2,3.8-3.6,5.1-6.6c0.6-1.6-1.6-4.2-2.4-2.8
					c-1.4,2.4-2.6,3.6-4.6,4.7C184.6,314.7,186.5,319.4,188,318.6"/>
				<path id="XMLID_183_" style="fill:#E25D25;" d="M274.6,275.3c2.2-1.2,3.8-3.6,5.1-6.6c0.6-1.6-1.6-4.2-2.4-2.8
					c-1.4,2.4-2.6,3.6-4.6,4.7C271.3,271.4,273.1,276.1,274.6,275.3"/>
				<path id="XMLID_182_" style="fill:#E25D25;" d="M236.8,268.3l-2.9,0.9v-3c0-1.1-2.3-1.1-2.3,0v3l-2.9-0.9
					c-1-0.3-1.7,1.8-0.7,2.1l2.9,0.9l-1.8,2.4c-0.6,0.9,1.2,2.2,1.8,1.3l1.8-2.4l1.8,2.4c0.6,0.9,2.5-0.5,1.8-1.3l-1.8-2.4l2.9-0.9
					C238.5,270.1,237.8,267.9,236.8,268.3"/>
				<path id="XMLID_181_" style="fill:#E25D25;" d="M280.1,311.6l-2.9,0.9v-3c0-1.1-2.3-1.1-2.3,0v3l-2.9-0.9
					c-1-0.3-1.7,1.8-0.7,2.1l2.9,0.9l-1.8,2.4c-0.6,0.9,1.2,2.2,1.8,1.3l1.8-2.4l1.8,2.4c0.6,0.9,2.5-0.5,1.8-1.3l-1.8-2.4l2.9-0.9
					C281.8,313.4,281.2,311.3,280.1,311.6"/>
				<path id="XMLID_180_" style="fill:#E25D25;" d="M233.5,310.2c-0.3-0.2-1.3-0.2-1.6,0c-1.4,1.1-2.9,4.1-3.8,6.6
					c-0.2,0.7,2.2,0.7,2.5,0c0.6-1.6,1.3-3,2.2-4.5c0.9,1.5,1.6,2.9,2.2,4.5c0.2,0.7,2.7,0.7,2.5,0
					C236.4,314.4,234.9,311.4,233.5,310.2"/>
				<path id="XMLID_179_" style="fill:#E25D25;" d="M276.8,223.6c-0.3-0.2-1.3-0.2-1.6,0c-1.4,1.1-2.9,4.1-3.8,6.6
					c-0.2,0.7,2.2,0.7,2.5,0c0.6-1.6,1.3-3,2.2-4.5c0.9,1.5,1.6,2.9,2.2,4.5c0.2,0.7,2.7,0.7,2.5,0
					C279.8,227.7,278.3,224.7,276.8,223.6"/>
			</g>
			<g id="XMLID_167_" style="clip-path:url(#SVGID_2_);">
				<rect id="XMLID_177_" x="169.8" y="333.3" style="fill:none;" width="125.9" height="125.9"/>
				<path id="XMLID_176_" style="fill:#E25D25;" d="M190.2,392.8c-0.3-0.2-1.3-0.2-1.6,0c-1.4,1.1-2.9,4.1-3.8,6.6
					c-0.2,0.7,2.2,0.7,2.5,0c0.6-1.6,1.3-3,2.2-4.5c0.9,1.5,1.6,2.9,2.2,4.5c0.2,0.7,2.7,0.7,2.5,0
					C193.1,396.9,191.6,393.9,190.2,392.8"/>
				<path id="XMLID_175_" style="fill:#E25D25;" d="M231.3,357.8c2.2-1.2,3.8-3.6,5.1-6.6c0.6-1.6-1.6-4.2-2.4-2.8
					c-1.4,2.4-2.6,3.6-4.6,4.7C227.9,353.9,229.8,358.6,231.3,357.8"/>
				<path id="XMLID_174_" style="fill:#E25D25;" d="M193.5,350.8l-2.9,0.9v-3c0-1.1-2.3-1.1-2.3,0v3l-2.9-0.9
					c-1-0.3-1.7,1.8-0.7,2.1l2.9,0.9l-1.8,2.4c-0.6,0.9,1.2,2.2,1.8,1.3l1.8-2.4l1.8,2.4c0.6,0.9,2.5-0.5,1.8-1.3l-1.8-2.4l2.9-0.9
					C195.2,352.6,194.5,350.5,193.5,350.8"/>
				<path id="XMLID_173_" style="fill:#E25D25;" d="M188,444.5c2.2-1.2,3.8-3.6,5.1-6.6c0.6-1.6-1.6-4.2-2.4-2.8
					c-1.4,2.4-2.6,3.6-4.6,4.7C184.6,440.6,186.5,445.3,188,444.5"/>
				<path id="XMLID_172_" style="fill:#E25D25;" d="M274.6,401.1c2.2-1.2,3.8-3.6,5.1-6.6c0.6-1.6-1.6-4.2-2.4-2.8
					c-1.4,2.4-2.6,3.6-4.6,4.7C271.3,397.2,273.1,402,274.6,401.1"/>
				<path id="XMLID_171_" style="fill:#E25D25;" d="M236.8,394.1l-2.9,0.9v-3c0-1.1-2.3-1.1-2.3,0v3l-2.9-0.9
					c-1-0.3-1.7,1.8-0.7,2.1l2.9,0.9l-1.8,2.4c-0.6,0.9,1.2,2.2,1.8,1.3l1.8-2.4l1.8,2.4c0.6,0.9,2.5-0.5,1.8-1.3l-1.8-2.4l2.9-0.9
					C238.5,396,237.8,393.8,236.8,394.1"/>
				<path id="XMLID_170_" style="fill:#E25D25;" d="M280.1,437.5l-2.9,0.9v-3c0-1.1-2.3-1.1-2.3,0v3l-2.9-0.9
					c-1-0.3-1.7,1.8-0.7,2.1l2.9,0.9l-1.8,2.4c-0.6,0.9,1.2,2.2,1.8,1.3l1.8-2.4l1.8,2.4c0.6,0.9,2.5-0.5,1.8-1.3l-1.8-2.4l2.9-0.9
					C281.8,439.3,281.2,437.1,280.1,437.5"/>
				<path id="XMLID_169_" style="fill:#E25D25;" d="M233.5,436.1c-0.3-0.2-1.3-0.2-1.6,0c-1.4,1.1-2.9,4.1-3.8,6.6
					c-0.2,0.7,2.2,0.7,2.5,0c0.6-1.6,1.3-3,2.2-4.5c0.9,1.5,1.6,2.9,2.2,4.5c0.2,0.7,2.7,0.7,2.5,0
					C236.4,440.3,234.9,437.3,233.5,436.1"/>
				<path id="XMLID_168_" style="fill:#E25D25;" d="M276.8,349.4c-0.3-0.2-1.3-0.2-1.6,0c-1.4,1.1-2.9,4.1-3.8,6.6
					c-0.2,0.7,2.2,0.7,2.5,0c0.6-1.6,1.3-3,2.2-4.5c0.9,1.5,1.6,2.9,2.2,4.5c0.2,0.7,2.7,0.7,2.5,0
					C279.8,353.6,278.3,350.6,276.8,349.4"/>
			</g>
			<g id="XMLID_156_" style="clip-path:url(#SVGID_2_);">
				<rect id="XMLID_166_" x="169.8" y="459.2" style="fill:none;" width="125.9" height="125.9"/>
				<path id="XMLID_165_" style="fill:#E25D25;" d="M190.2,518.7c-0.3-0.2-1.3-0.2-1.6,0c-1.4,1.1-2.9,4.1-3.8,6.6
					c-0.2,0.7,2.2,0.7,2.5,0c0.6-1.6,1.3-3,2.2-4.5c0.9,1.5,1.6,2.9,2.2,4.5c0.2,0.7,2.7,0.7,2.5,0
					C193.1,522.8,191.6,519.8,190.2,518.7"/>
				<path id="XMLID_164_" style="fill:#E25D25;" d="M231.3,483.7c2.2-1.2,3.8-3.6,5.1-6.6c0.6-1.6-1.6-4.2-2.4-2.8
					c-1.4,2.4-2.6,3.6-4.6,4.7C227.9,479.8,229.8,484.5,231.3,483.7"/>
				<path id="XMLID_163_" style="fill:#E25D25;" d="M193.5,476.7l-2.9,0.9v-3c0-1.1-2.3-1.1-2.3,0v3l-2.9-0.9
					c-1-0.3-1.7,1.8-0.7,2.1l2.9,0.9l-1.8,2.4c-0.6,0.9,1.2,2.2,1.8,1.3l1.8-2.4l1.8,2.4c0.6,0.9,2.5-0.5,1.8-1.3l-1.8-2.4l2.9-0.9
					C195.2,478.5,194.5,476.4,193.5,476.7"/>
				<path id="XMLID_162_" style="fill:#E25D25;" d="M188,570.3c2.2-1.2,3.8-3.6,5.1-6.6c0.6-1.6-1.6-4.2-2.4-2.8
					c-1.4,2.4-2.6,3.6-4.6,4.7C184.6,566.4,186.5,571.2,188,570.3"/>
				<path id="XMLID_161_" style="fill:#E25D25;" d="M274.6,527c2.2-1.2,3.8-3.6,5.1-6.6c0.6-1.6-1.6-4.2-2.4-2.8
					c-1.4,2.4-2.6,3.6-4.6,4.7C271.3,523.1,273.1,527.9,274.6,527"/>
				<path id="XMLID_160_" style="fill:#E25D25;" d="M236.8,520l-2.9,0.9v-3c0-1.1-2.3-1.1-2.3,0v3l-2.9-0.9c-1-0.3-1.7,1.8-0.7,2.1
					l2.9,0.9l-1.8,2.4c-0.6,0.9,1.2,2.2,1.8,1.3l1.8-2.4l1.8,2.4c0.6,0.9,2.5-0.5,1.8-1.3l-1.8-2.4l2.9-0.9
					C238.5,521.8,237.8,519.7,236.8,520"/>
				<path id="XMLID_159_" style="fill:#E25D25;" d="M280.1,563.4l-2.9,0.9v-3c0-1.1-2.3-1.1-2.3,0v3l-2.9-0.9
					c-1-0.3-1.7,1.8-0.7,2.1l2.9,0.9l-1.8,2.4c-0.6,0.9,1.2,2.2,1.8,1.3l1.8-2.4l1.8,2.4c0.6,0.9,2.5-0.5,1.8-1.3l-1.8-2.4l2.9-0.9
					C281.8,565.2,281.2,563,280.1,563.4"/>
				<path id="XMLID_158_" style="fill:#E25D25;" d="M233.5,562c-0.3-0.2-1.3-0.2-1.6,0c-1.4,1.1-2.9,4.1-3.8,6.6
					c-0.2,0.7,2.2,0.7,2.5,0c0.6-1.6,1.3-3,2.2-4.5c0.9,1.5,1.6,2.9,2.2,4.5c0.2,0.7,2.7,0.7,2.5,0
					C236.4,566.1,234.9,563.1,233.5,562"/>
				<path id="XMLID_157_" style="fill:#E25D25;" d="M276.8,475.3c-0.3-0.2-1.3-0.2-1.6,0c-1.4,1.1-2.9,4.1-3.8,6.6
					c-0.2,0.7,2.2,0.7,2.5,0c0.6-1.6,1.3-3,2.2-4.5c0.9,1.5,1.6,2.9,2.2,4.5c0.2,0.7,2.7,0.7,2.5,0
					C279.8,479.5,278.3,476.5,276.8,475.3"/>
			</g>
			<g id="XMLID_145_" style="clip-path:url(#SVGID_2_);">
				<rect id="XMLID_155_" x="169.8" y="585.1" style="fill:none;" width="125.9" height="125.9"/>
				<path id="XMLID_154_" style="fill:#E25D25;" d="M190.2,644.5c-0.3-0.2-1.3-0.2-1.6,0c-1.4,1.1-2.9,4.1-3.8,6.6
					c-0.2,0.7,2.2,0.7,2.5,0c0.6-1.6,1.3-3,2.2-4.5c0.9,1.5,1.6,2.9,2.2,4.5c0.2,0.7,2.7,0.7,2.5,0
					C193.1,648.7,191.6,645.7,190.2,644.5"/>
				<path id="XMLID_153_" style="fill:#E25D25;" d="M231.3,609.6c2.2-1.2,3.8-3.6,5.1-6.6c0.6-1.6-1.6-4.2-2.4-2.8
					c-1.4,2.4-2.6,3.6-4.6,4.7C227.9,605.7,229.8,610.4,231.3,609.6"/>
				<path id="XMLID_152_" style="fill:#E25D25;" d="M193.5,602.6l-2.9,0.9v-3c0-1.1-2.3-1.1-2.3,0v3l-2.9-0.9
					c-1-0.3-1.7,1.8-0.7,2.1l2.9,0.9l-1.8,2.4c-0.6,0.9,1.2,2.2,1.8,1.3l1.8-2.4l1.8,2.4c0.6,0.9,2.5-0.5,1.8-1.3l-1.8-2.4l2.9-0.9
					C195.2,604.4,194.5,602.2,193.5,602.6"/>
				<path id="XMLID_151_" style="fill:#E25D25;" d="M188,696.2c2.2-1.2,3.8-3.6,5.1-6.6c0.6-1.6-1.6-4.2-2.4-2.8
					c-1.4,2.4-2.6,3.6-4.6,4.7C184.6,692.3,186.5,697.1,188,696.2"/>
				<path id="XMLID_150_" style="fill:#E25D25;" d="M274.6,652.9c2.2-1.2,3.8-3.6,5.1-6.6c0.6-1.6-1.6-4.2-2.4-2.8
					c-1.4,2.4-2.6,3.6-4.6,4.7C271.3,649,273.1,653.7,274.6,652.9"/>
				<path id="XMLID_149_" style="fill:#E25D25;" d="M236.8,645.9l-2.9,0.9v-3c0-1.1-2.3-1.1-2.3,0v3l-2.9-0.9
					c-1-0.3-1.7,1.8-0.7,2.1l2.9,0.9l-1.8,2.4c-0.6,0.9,1.2,2.2,1.8,1.3l1.8-2.4l1.8,2.4c0.6,0.9,2.5-0.5,1.8-1.3l-1.8-2.4l2.9-0.9
					C238.5,647.7,237.8,645.6,236.8,645.9"/>
				<path id="XMLID_148_" style="fill:#E25D25;" d="M280.1,689.2l-2.9,0.9v-3c0-1.1-2.3-1.1-2.3,0v3l-2.9-0.9
					c-1-0.3-1.7,1.8-0.7,2.1l2.9,0.9l-1.8,2.4c-0.6,0.9,1.2,2.2,1.8,1.3l1.8-2.4l1.8,2.4c0.6,0.9,2.5-0.5,1.8-1.3l-1.8-2.4l2.9-0.9
					C281.8,691,281.2,688.9,280.1,689.2"/>
				<path id="XMLID_147_" style="fill:#E25D25;" d="M233.5,687.9c-0.3-0.2-1.3-0.2-1.6,0c-1.4,1.1-2.9,4.1-3.8,6.6
					c-0.2,0.7,2.2,0.7,2.5,0c0.6-1.6,1.3-3,2.2-4.5c0.9,1.5,1.6,2.9,2.2,4.5c0.2,0.7,2.7,0.7,2.5,0C236.4,692,234.9,689,233.5,687.9
					"/>
				<path id="XMLID_146_" style="fill:#E25D25;" d="M276.8,601.2c-0.3-0.2-1.3-0.2-1.6,0c-1.4,1.1-2.9,4.1-3.8,6.6
					c-0.2,0.7,2.2,0.7,2.5,0c0.6-1.6,1.3-3,2.2-4.5c0.9,1.5,1.6,2.9,2.2,4.5c0.2,0.7,2.7,0.7,2.5,0
					C279.8,605.3,278.3,602.3,276.8,601.2"/>
			</g>
			<g id="XMLID_134_" style="clip-path:url(#SVGID_2_);">
				<rect id="XMLID_144_" x="43.9" y="-44.3" style="fill:none;" width="125.9" height="125.9"/>
				<path id="XMLID_143_" style="fill:#E25D25;" d="M64.3,15.1c-0.3-0.2-1.3-0.2-1.6,0c-1.4,1.1-2.9,4.1-3.8,6.6
					c-0.2,0.7,2.2,0.7,2.5,0c0.6-1.6,1.3-3,2.2-4.5c0.9,1.5,1.6,2.9,2.2,4.5c0.2,0.7,2.7,0.7,2.5,0C67.2,19.3,65.7,16.3,64.3,15.1"
					/>
				<path id="XMLID_142_" style="fill:#E25D25;" d="M105.4-19.8c2.2-1.2,3.8-3.6,5.1-6.6c0.6-1.6-1.6-4.2-2.4-2.8
					c-1.4,2.4-2.6,3.6-4.6,4.7C102.1-23.7,103.9-19,105.4-19.8"/>
				<path id="XMLID_141_" style="fill:#E25D25;" d="M67.6-26.8l-2.9,0.9v-3c0-1.1-2.3-1.1-2.3,0v3l-2.9-0.9c-1-0.3-1.7,1.8-0.7,2.1
					l2.9,0.9l-1.8,2.4c-0.6,0.9,1.2,2.2,1.8,1.3l1.8-2.4l1.8,2.4c0.6,0.9,2.5-0.5,1.8-1.3l-1.8-2.4l2.9-0.9
					C69.3-25,68.6-27.2,67.6-26.8"/>
				<path id="XMLID_140_" style="fill:#E25D25;" d="M62.1,66.8c2.2-1.2,3.8-3.6,5.1-6.6c0.6-1.6-1.6-4.2-2.4-2.8
					c-1.4,2.4-2.6,3.6-4.6,4.7C58.7,62.9,60.6,67.7,62.1,66.8"/>
				<path id="XMLID_139_" style="fill:#E25D25;" d="M148.8,23.5c2.2-1.2,3.8-3.6,5.1-6.6c0.6-1.6-1.6-4.2-2.4-2.8
					c-1.4,2.4-2.6,3.6-4.6,4.7C145.4,19.6,147.3,24.3,148.8,23.5"/>
				<path id="XMLID_138_" style="fill:#E25D25;" d="M110.9,16.5l-2.9,0.9v-3c0-1.1-2.3-1.1-2.3,0v3l-2.9-0.9c-1-0.3-1.7,1.8-0.7,2.1
					l2.9,0.9l-1.8,2.4c-0.6,0.9,1.2,2.2,1.8,1.3l1.8-2.4l1.8,2.4c0.6,0.9,2.5-0.5,1.8-1.3l-1.8-2.4l2.9-0.9
					C112.6,18.3,112,16.2,110.9,16.5"/>
				<path id="XMLID_137_" style="fill:#E25D25;" d="M154.3,59.8l-2.9,0.9v-3c0-1.1-2.3-1.1-2.3,0v3l-2.9-0.9c-1-0.3-1.7,1.8-0.7,2.1
					l2.9,0.9l-1.8,2.4c-0.6,0.9,1.2,2.2,1.8,1.3l1.8-2.4l1.8,2.4c0.6,0.9,2.5-0.5,1.8-1.3l-1.8-2.4l2.9-0.9
					C156,61.7,155.3,59.5,154.3,59.8"/>
				<path id="XMLID_136_" style="fill:#E25D25;" d="M107.6,58.5c-0.3-0.2-1.3-0.2-1.6,0c-1.4,1.1-2.9,4.1-3.8,6.6
					c-0.2,0.7,2.2,0.7,2.5,0c0.6-1.6,1.3-3,2.2-4.5c0.9,1.5,1.6,2.9,2.2,4.5c0.2,0.7,2.7,0.7,2.5,0
					C110.6,62.6,109.1,59.6,107.6,58.5"/>
				<path id="XMLID_135_" style="fill:#E25D25;" d="M151-28.2c-0.3-0.2-1.3-0.2-1.6,0c-1.4,1.1-2.9,4.1-3.8,6.6
					c-0.2,0.7,2.2,0.7,2.5,0c0.6-1.6,1.3-3,2.2-4.5c0.9,1.5,1.6,2.9,2.2,4.5c0.2,0.7,2.7,0.7,2.5,0C153.9-24,152.4-27,151-28.2"/>
			</g>
			<g id="XMLID_123_" style="clip-path:url(#SVGID_2_);">
				<rect id="XMLID_133_" x="43.9" y="81.6" style="fill:none;" width="125.9" height="125.9"/>
				<path id="XMLID_132_" style="fill:#E25D25;" d="M64.3,141c-0.3-0.2-1.3-0.2-1.6,0c-1.4,1.1-2.9,4.1-3.8,6.6
					c-0.2,0.7,2.2,0.7,2.5,0c0.6-1.6,1.3-3,2.2-4.5c0.9,1.5,1.6,2.9,2.2,4.5c0.2,0.7,2.7,0.7,2.5,0C67.2,145.2,65.7,142.2,64.3,141"
					/>
				<path id="XMLID_131_" style="fill:#E25D25;" d="M105.4,106c2.2-1.2,3.8-3.6,5.1-6.6c0.6-1.6-1.6-4.2-2.4-2.8
					c-1.4,2.4-2.6,3.6-4.6,4.7C102.1,102.1,103.9,106.9,105.4,106"/>
				<path id="XMLID_130_" style="fill:#E25D25;" d="M67.6,99.1l-2.9,0.9v-3c0-1.1-2.3-1.1-2.3,0v3l-2.9-0.9c-1-0.3-1.7,1.8-0.7,2.1
					l2.9,0.9l-1.8,2.4c-0.6,0.9,1.2,2.2,1.8,1.3l1.8-2.4l1.8,2.4c0.6,0.9,2.5-0.5,1.8-1.3l-1.8-2.4l2.9-0.9
					C69.3,100.9,68.6,98.7,67.6,99.1"/>
				<path id="XMLID_129_" style="fill:#E25D25;" d="M62.1,192.7c2.2-1.2,3.8-3.6,5.1-6.6c0.6-1.6-1.6-4.2-2.4-2.8
					c-1.4,2.4-2.6,3.6-4.6,4.7C58.7,188.8,60.6,193.6,62.1,192.7"/>
				<path id="XMLID_128_" style="fill:#E25D25;" d="M148.8,149.4c2.2-1.2,3.8-3.6,5.1-6.6c0.6-1.6-1.6-4.2-2.4-2.8
					c-1.4,2.4-2.6,3.6-4.6,4.7C145.4,145.5,147.3,150.2,148.8,149.4"/>
				<path id="XMLID_127_" style="fill:#E25D25;" d="M110.9,142.4l-2.9,0.9v-3c0-1.1-2.3-1.1-2.3,0v3l-2.9-0.9
					c-1-0.3-1.7,1.8-0.7,2.1l2.9,0.9l-1.8,2.4c-0.6,0.9,1.2,2.2,1.8,1.3l1.8-2.4l1.8,2.4c0.6,0.9,2.5-0.5,1.8-1.3l-1.8-2.4l2.9-0.9
					C112.6,144.2,112,142.1,110.9,142.4"/>
				<path id="XMLID_126_" style="fill:#E25D25;" d="M154.3,185.7l-2.9,0.9v-3c0-1.1-2.3-1.1-2.3,0v3l-2.9-0.9
					c-1-0.3-1.7,1.8-0.7,2.1l2.9,0.9l-1.8,2.4c-0.6,0.9,1.2,2.2,1.8,1.3l1.8-2.4l1.8,2.4c0.6,0.9,2.5-0.5,1.8-1.3l-1.8-2.4l2.9-0.9
					C156,187.5,155.3,185.4,154.3,185.7"/>
				<path id="XMLID_125_" style="fill:#E25D25;" d="M107.6,184.4c-0.3-0.2-1.3-0.2-1.6,0c-1.4,1.1-2.9,4.1-3.8,6.6
					c-0.2,0.7,2.2,0.7,2.5,0c0.6-1.6,1.3-3,2.2-4.5c0.9,1.5,1.6,2.9,2.2,4.5c0.2,0.7,2.7,0.7,2.5,0
					C110.6,188.5,109.1,185.5,107.6,184.4"/>
				<path id="XMLID_124_" style="fill:#E25D25;" d="M151,97.7c-0.3-0.2-1.3-0.2-1.6,0c-1.4,1.1-2.9,4.1-3.8,6.6
					c-0.2,0.7,2.2,0.7,2.5,0c0.6-1.6,1.3-3,2.2-4.5c0.9,1.5,1.6,2.9,2.2,4.5c0.2,0.7,2.7,0.7,2.5,0C153.9,101.8,152.4,98.8,151,97.7
					"/>
			</g>
			<g id="XMLID_112_" style="clip-path:url(#SVGID_2_);">
				<rect id="XMLID_122_" x="43.9" y="207.5" style="fill:none;" width="125.9" height="125.9"/>
				<path id="XMLID_121_" style="fill:#E25D25;" d="M64.3,266.9c-0.3-0.2-1.3-0.2-1.6,0c-1.4,1.1-2.9,4.1-3.8,6.6
					c-0.2,0.7,2.2,0.7,2.5,0c0.6-1.6,1.3-3,2.2-4.5c0.9,1.5,1.6,2.9,2.2,4.5c0.2,0.7,2.7,0.7,2.5,0C67.2,271,65.7,268,64.3,266.9"/>
				<path id="XMLID_120_" style="fill:#E25D25;" d="M105.4,231.9c2.2-1.2,3.8-3.6,5.1-6.6c0.6-1.6-1.6-4.2-2.4-2.8
					c-1.4,2.4-2.6,3.6-4.6,4.7C102.1,228,103.9,232.8,105.4,231.9"/>
				<path id="XMLID_119_" style="fill:#E25D25;" d="M67.6,224.9l-2.9,0.9v-3c0-1.1-2.3-1.1-2.3,0v3l-2.9-0.9c-1-0.3-1.7,1.8-0.7,2.1
					l2.9,0.9l-1.8,2.4c-0.6,0.9,1.2,2.2,1.8,1.3l1.8-2.4l1.8,2.4c0.6,0.9,2.5-0.5,1.8-1.3l-1.8-2.4l2.9-0.9
					C69.3,226.7,68.6,224.6,67.6,224.9"/>
				<path id="XMLID_118_" style="fill:#E25D25;" d="M62.1,318.6c2.2-1.2,3.8-3.6,5.1-6.6c0.6-1.6-1.6-4.2-2.4-2.8
					c-1.4,2.4-2.6,3.6-4.6,4.7C58.7,314.7,60.6,319.4,62.1,318.6"/>
				<path id="XMLID_117_" style="fill:#E25D25;" d="M148.8,275.3c2.2-1.2,3.8-3.6,5.1-6.6c0.6-1.6-1.6-4.2-2.4-2.8
					c-1.4,2.4-2.6,3.6-4.6,4.7C145.4,271.4,147.3,276.1,148.8,275.3"/>
				<path id="XMLID_116_" style="fill:#E25D25;" d="M110.9,268.3l-2.9,0.9v-3c0-1.1-2.3-1.1-2.3,0v3l-2.9-0.9
					c-1-0.3-1.7,1.8-0.7,2.1l2.9,0.9l-1.8,2.4c-0.6,0.9,1.2,2.2,1.8,1.3l1.8-2.4l1.8,2.4c0.6,0.9,2.5-0.5,1.8-1.3l-1.8-2.4l2.9-0.9
					C112.6,270.1,112,267.9,110.9,268.3"/>
				<path id="XMLID_115_" style="fill:#E25D25;" d="M154.3,311.6l-2.9,0.9v-3c0-1.1-2.3-1.1-2.3,0v3l-2.9-0.9
					c-1-0.3-1.7,1.8-0.7,2.1l2.9,0.9l-1.8,2.4c-0.6,0.9,1.2,2.2,1.8,1.3l1.8-2.4l1.8,2.4c0.6,0.9,2.5-0.5,1.8-1.3l-1.8-2.4l2.9-0.9
					C156,313.4,155.3,311.3,154.3,311.6"/>
				<path id="XMLID_114_" style="fill:#E25D25;" d="M107.6,310.2c-0.3-0.2-1.3-0.2-1.6,0c-1.4,1.1-2.9,4.1-3.8,6.6
					c-0.2,0.7,2.2,0.7,2.5,0c0.6-1.6,1.3-3,2.2-4.5c0.9,1.5,1.6,2.9,2.2,4.5c0.2,0.7,2.7,0.7,2.5,0
					C110.6,314.4,109.1,311.4,107.6,310.2"/>
				<path id="XMLID_113_" style="fill:#E25D25;" d="M151,223.6c-0.3-0.2-1.3-0.2-1.6,0c-1.4,1.1-2.9,4.1-3.8,6.6
					c-0.2,0.7,2.2,0.7,2.5,0c0.6-1.6,1.3-3,2.2-4.5c0.9,1.5,1.6,2.9,2.2,4.5c0.2,0.7,2.7,0.7,2.5,0
					C153.9,227.7,152.4,224.7,151,223.6"/>
			</g>
			<g id="XMLID_101_" style="clip-path:url(#SVGID_2_);">
				<rect id="XMLID_111_" x="43.9" y="333.3" style="fill:none;" width="125.9" height="125.9"/>
				<path id="XMLID_110_" style="fill:#E25D25;" d="M64.3,392.8c-0.3-0.2-1.3-0.2-1.6,0c-1.4,1.1-2.9,4.1-3.8,6.6
					c-0.2,0.7,2.2,0.7,2.5,0c0.6-1.6,1.3-3,2.2-4.5c0.9,1.5,1.6,2.9,2.2,4.5c0.2,0.7,2.7,0.7,2.5,0
					C67.2,396.9,65.7,393.9,64.3,392.8"/>
				<path id="XMLID_109_" style="fill:#E25D25;" d="M105.4,357.8c2.2-1.2,3.8-3.6,5.1-6.6c0.6-1.6-1.6-4.2-2.4-2.8
					c-1.4,2.4-2.6,3.6-4.6,4.7C102.1,353.9,103.9,358.6,105.4,357.8"/>
				<path id="XMLID_108_" style="fill:#E25D25;" d="M67.6,350.8l-2.9,0.9v-3c0-1.1-2.3-1.1-2.3,0v3l-2.9-0.9c-1-0.3-1.7,1.8-0.7,2.1
					l2.9,0.9l-1.8,2.4c-0.6,0.9,1.2,2.2,1.8,1.3l1.8-2.4l1.8,2.4c0.6,0.9,2.5-0.5,1.8-1.3l-1.8-2.4l2.9-0.9
					C69.3,352.6,68.6,350.5,67.6,350.8"/>
				<path id="XMLID_107_" style="fill:#E25D25;" d="M62.1,444.5c2.2-1.2,3.8-3.6,5.1-6.6c0.6-1.6-1.6-4.2-2.4-2.8
					c-1.4,2.4-2.6,3.6-4.6,4.7C58.7,440.6,60.6,445.3,62.1,444.5"/>
				<path id="XMLID_106_" style="fill:#E25D25;" d="M148.8,401.1c2.2-1.2,3.8-3.6,5.1-6.6c0.6-1.6-1.6-4.2-2.4-2.8
					c-1.4,2.4-2.6,3.6-4.6,4.7C145.4,397.2,147.3,402,148.8,401.1"/>
				<path id="XMLID_105_" style="fill:#E25D25;" d="M110.9,394.1l-2.9,0.9v-3c0-1.1-2.3-1.1-2.3,0v3l-2.9-0.9
					c-1-0.3-1.7,1.8-0.7,2.1l2.9,0.9l-1.8,2.4c-0.6,0.9,1.2,2.2,1.8,1.3l1.8-2.4l1.8,2.4c0.6,0.9,2.5-0.5,1.8-1.3l-1.8-2.4l2.9-0.9
					C112.6,396,112,393.8,110.9,394.1"/>
				<path id="XMLID_104_" style="fill:#E25D25;" d="M154.3,437.5l-2.9,0.9v-3c0-1.1-2.3-1.1-2.3,0v3l-2.9-0.9
					c-1-0.3-1.7,1.8-0.7,2.1l2.9,0.9l-1.8,2.4c-0.6,0.9,1.2,2.2,1.8,1.3l1.8-2.4l1.8,2.4c0.6,0.9,2.5-0.5,1.8-1.3l-1.8-2.4l2.9-0.9
					C156,439.3,155.3,437.1,154.3,437.5"/>
				<path id="XMLID_103_" style="fill:#E25D25;" d="M107.6,436.1c-0.3-0.2-1.3-0.2-1.6,0c-1.4,1.1-2.9,4.1-3.8,6.6
					c-0.2,0.7,2.2,0.7,2.5,0c0.6-1.6,1.3-3,2.2-4.5c0.9,1.5,1.6,2.9,2.2,4.5c0.2,0.7,2.7,0.7,2.5,0
					C110.6,440.3,109.1,437.3,107.6,436.1"/>
				<path id="XMLID_102_" style="fill:#E25D25;" d="M151,349.4c-0.3-0.2-1.3-0.2-1.6,0c-1.4,1.1-2.9,4.1-3.8,6.6
					c-0.2,0.7,2.2,0.7,2.5,0c0.6-1.6,1.3-3,2.2-4.5c0.9,1.5,1.6,2.9,2.2,4.5c0.2,0.7,2.7,0.7,2.5,0
					C153.9,353.6,152.4,350.6,151,349.4"/>
			</g>
			<g id="XMLID_90_" style="clip-path:url(#SVGID_2_);">
				<rect id="XMLID_100_" x="43.9" y="459.2" style="fill:none;" width="125.9" height="125.9"/>
				<path id="XMLID_99_" style="fill:#E25D25;" d="M64.3,518.7c-0.3-0.2-1.3-0.2-1.6,0c-1.4,1.1-2.9,4.1-3.8,6.6
					c-0.2,0.7,2.2,0.7,2.5,0c0.6-1.6,1.3-3,2.2-4.5c0.9,1.5,1.6,2.9,2.2,4.5c0.2,0.7,2.7,0.7,2.5,0
					C67.2,522.8,65.7,519.8,64.3,518.7"/>
				<path id="XMLID_98_" style="fill:#E25D25;" d="M105.4,483.7c2.2-1.2,3.8-3.6,5.1-6.6c0.6-1.6-1.6-4.2-2.4-2.8
					c-1.4,2.4-2.6,3.6-4.6,4.7C102.1,479.8,103.9,484.5,105.4,483.7"/>
				<path id="XMLID_97_" style="fill:#E25D25;" d="M67.6,476.7l-2.9,0.9v-3c0-1.1-2.3-1.1-2.3,0v3l-2.9-0.9c-1-0.3-1.7,1.8-0.7,2.1
					l2.9,0.9l-1.8,2.4c-0.6,0.9,1.2,2.2,1.8,1.3l1.8-2.4l1.8,2.4c0.6,0.9,2.5-0.5,1.8-1.3l-1.8-2.4l2.9-0.9
					C69.3,478.5,68.6,476.4,67.6,476.7"/>
				<path id="XMLID_96_" style="fill:#E25D25;" d="M62.1,570.3c2.2-1.2,3.8-3.6,5.1-6.6c0.6-1.6-1.6-4.2-2.4-2.8
					c-1.4,2.4-2.6,3.6-4.6,4.7C58.7,566.4,60.6,571.2,62.1,570.3"/>
				<path id="XMLID_95_" style="fill:#E25D25;" d="M148.8,527c2.2-1.2,3.8-3.6,5.1-6.6c0.6-1.6-1.6-4.2-2.4-2.8
					c-1.4,2.4-2.6,3.6-4.6,4.7C145.4,523.1,147.3,527.9,148.8,527"/>
				<path id="XMLID_94_" style="fill:#E25D25;" d="M110.9,520l-2.9,0.9v-3c0-1.1-2.3-1.1-2.3,0v3l-2.9-0.9c-1-0.3-1.7,1.8-0.7,2.1
					l2.9,0.9l-1.8,2.4c-0.6,0.9,1.2,2.2,1.8,1.3l1.8-2.4l1.8,2.4c0.6,0.9,2.5-0.5,1.8-1.3l-1.8-2.4l2.9-0.9
					C112.6,521.8,112,519.7,110.9,520"/>
				<path id="XMLID_93_" style="fill:#E25D25;" d="M154.3,563.4l-2.9,0.9v-3c0-1.1-2.3-1.1-2.3,0v3l-2.9-0.9c-1-0.3-1.7,1.8-0.7,2.1
					l2.9,0.9l-1.8,2.4c-0.6,0.9,1.2,2.2,1.8,1.3l1.8-2.4l1.8,2.4c0.6,0.9,2.5-0.5,1.8-1.3l-1.8-2.4l2.9-0.9
					C156,565.2,155.3,563,154.3,563.4"/>
				<path id="XMLID_92_" style="fill:#E25D25;" d="M107.6,562c-0.3-0.2-1.3-0.2-1.6,0c-1.4,1.1-2.9,4.1-3.8,6.6
					c-0.2,0.7,2.2,0.7,2.5,0c0.6-1.6,1.3-3,2.2-4.5c0.9,1.5,1.6,2.9,2.2,4.5c0.2,0.7,2.7,0.7,2.5,0
					C110.6,566.1,109.1,563.1,107.6,562"/>
				<path id="XMLID_91_" style="fill:#E25D25;" d="M151,475.3c-0.3-0.2-1.3-0.2-1.6,0c-1.4,1.1-2.9,4.1-3.8,6.6
					c-0.2,0.7,2.2,0.7,2.5,0c0.6-1.6,1.3-3,2.2-4.5c0.9,1.5,1.6,2.9,2.2,4.5c0.2,0.7,2.7,0.7,2.5,0
					C153.9,479.5,152.4,476.5,151,475.3"/>
			</g>
			<g id="XMLID_79_" style="clip-path:url(#SVGID_2_);">
				<rect id="XMLID_89_" x="43.9" y="585.1" style="fill:none;" width="125.9" height="125.9"/>
				<path id="XMLID_88_" style="fill:#E25D25;" d="M64.3,644.5c-0.3-0.2-1.3-0.2-1.6,0c-1.4,1.1-2.9,4.1-3.8,6.6
					c-0.2,0.7,2.2,0.7,2.5,0c0.6-1.6,1.3-3,2.2-4.5c0.9,1.5,1.6,2.9,2.2,4.5c0.2,0.7,2.7,0.7,2.5,0
					C67.2,648.7,65.7,645.7,64.3,644.5"/>
				<path id="XMLID_87_" style="fill:#E25D25;" d="M105.4,609.6c2.2-1.2,3.8-3.6,5.1-6.6c0.6-1.6-1.6-4.2-2.4-2.8
					c-1.4,2.4-2.6,3.6-4.6,4.7C102.1,605.7,103.9,610.4,105.4,609.6"/>
				<path id="XMLID_86_" style="fill:#E25D25;" d="M67.6,602.6l-2.9,0.9v-3c0-1.1-2.3-1.1-2.3,0v3l-2.9-0.9c-1-0.3-1.7,1.8-0.7,2.1
					l2.9,0.9l-1.8,2.4c-0.6,0.9,1.2,2.2,1.8,1.3l1.8-2.4l1.8,2.4c0.6,0.9,2.5-0.5,1.8-1.3l-1.8-2.4l2.9-0.9
					C69.3,604.4,68.6,602.2,67.6,602.6"/>
				<path id="XMLID_85_" style="fill:#E25D25;" d="M62.1,696.2c2.2-1.2,3.8-3.6,5.1-6.6c0.6-1.6-1.6-4.2-2.4-2.8
					c-1.4,2.4-2.6,3.6-4.6,4.7C58.7,692.3,60.6,697.1,62.1,696.2"/>
				<path id="XMLID_84_" style="fill:#E25D25;" d="M148.8,652.9c2.2-1.2,3.8-3.6,5.1-6.6c0.6-1.6-1.6-4.2-2.4-2.8
					c-1.4,2.4-2.6,3.6-4.6,4.7C145.4,649,147.3,653.7,148.8,652.9"/>
				<path id="XMLID_83_" style="fill:#E25D25;" d="M110.9,645.9l-2.9,0.9v-3c0-1.1-2.3-1.1-2.3,0v3l-2.9-0.9c-1-0.3-1.7,1.8-0.7,2.1
					l2.9,0.9l-1.8,2.4c-0.6,0.9,1.2,2.2,1.8,1.3l1.8-2.4l1.8,2.4c0.6,0.9,2.5-0.5,1.8-1.3l-1.8-2.4l2.9-0.9
					C112.6,647.7,112,645.6,110.9,645.9"/>
				<path id="XMLID_82_" style="fill:#E25D25;" d="M154.3,689.2l-2.9,0.9v-3c0-1.1-2.3-1.1-2.3,0v3l-2.9-0.9c-1-0.3-1.7,1.8-0.7,2.1
					l2.9,0.9l-1.8,2.4c-0.6,0.9,1.2,2.2,1.8,1.3l1.8-2.4l1.8,2.4c0.6,0.9,2.5-0.5,1.8-1.3l-1.8-2.4l2.9-0.9
					C156,691,155.3,688.9,154.3,689.2"/>
				<path id="XMLID_81_" style="fill:#E25D25;" d="M107.6,687.9c-0.3-0.2-1.3-0.2-1.6,0c-1.4,1.1-2.9,4.1-3.8,6.6
					c-0.2,0.7,2.2,0.7,2.5,0c0.6-1.6,1.3-3,2.2-4.5c0.9,1.5,1.6,2.9,2.2,4.5c0.2,0.7,2.7,0.7,2.5,0C110.6,692,109.1,689,107.6,687.9
					"/>
				<path id="XMLID_80_" style="fill:#E25D25;" d="M151,601.2c-0.3-0.2-1.3-0.2-1.6,0c-1.4,1.1-2.9,4.1-3.8,6.6
					c-0.2,0.7,2.2,0.7,2.5,0c0.6-1.6,1.3-3,2.2-4.5c0.9,1.5,1.6,2.9,2.2,4.5c0.2,0.7,2.7,0.7,2.5,0
					C153.9,605.3,152.4,602.3,151,601.2"/>
			</g>
			<g id="XMLID_68_" style="clip-path:url(#SVGID_2_);">
				<rect id="XMLID_78_" x="-82" y="-44.3" style="fill:none;" width="125.9" height="125.9"/>
				<path id="XMLID_77_" style="fill:#E25D25;" d="M-61.6,15.1c-0.3-0.2-1.3-0.2-1.6,0c-1.4,1.1-2.9,4.1-3.8,6.6
					c-0.2,0.7,2.2,0.7,2.5,0c0.6-1.6,1.3-3,2.2-4.5c0.9,1.5,1.6,2.9,2.2,4.5c0.2,0.7,2.7,0.7,2.5,0C-58.7,19.3-60.2,16.3-61.6,15.1"
					/>
				<path id="XMLID_76_" style="fill:#E25D25;" d="M-20.5-19.8c2.2-1.2,3.8-3.6,5.1-6.6c0.6-1.6-1.6-4.2-2.4-2.8
					c-1.4,2.4-2.6,3.6-4.6,4.7C-23.8-23.7-22-19-20.5-19.8"/>
				<path id="XMLID_75_" style="fill:#E25D25;" d="M-58.3-26.8l-2.9,0.9v-3c0-1.1-2.3-1.1-2.3,0v3l-2.9-0.9c-1-0.3-1.7,1.8-0.7,2.1
					l2.9,0.9l-1.8,2.4c-0.6,0.9,1.2,2.2,1.8,1.3l1.8-2.4l1.8,2.4c0.6,0.9,2.5-0.5,1.8-1.3l-1.8-2.4l2.9-0.9
					C-56.6-25-57.3-27.2-58.3-26.8"/>
				<path id="XMLID_74_" style="fill:#E25D25;" d="M-63.8,66.8c2.2-1.2,3.8-3.6,5.1-6.6c0.6-1.6-1.6-4.2-2.4-2.8
					c-1.4,2.4-2.6,3.6-4.6,4.7C-67.1,62.9-65.3,67.7-63.8,66.8"/>
				<path id="XMLID_73_" style="fill:#E25D25;" d="M22.9,23.5c2.2-1.2,3.8-3.6,5.1-6.6c0.6-1.6-1.6-4.2-2.4-2.8
					c-1.4,2.4-2.6,3.6-4.6,4.7C19.5,19.6,21.4,24.3,22.9,23.5"/>
				<path id="XMLID_72_" style="fill:#E25D25;" d="M-14.9,16.5l-2.9,0.9v-3c0-1.1-2.3-1.1-2.3,0v3l-2.9-0.9c-1-0.3-1.7,1.8-0.7,2.1
					l2.9,0.9l-1.8,2.4c-0.6,0.9,1.2,2.2,1.8,1.3l1.8-2.4l1.8,2.4c0.6,0.9,2.5-0.5,1.8-1.3l-1.8-2.4l2.9-0.9
					C-13.2,18.3-13.9,16.2-14.9,16.5"/>
				<path id="XMLID_71_" style="fill:#E25D25;" d="M28.4,59.8l-2.9,0.9v-3c0-1.1-2.3-1.1-2.3,0v3l-2.9-0.9c-1-0.3-1.7,1.8-0.7,2.1
					l2.9,0.9l-1.8,2.4c-0.6,0.9,1.2,2.2,1.8,1.3l1.8-2.4l1.8,2.4c0.6,0.9,2.5-0.5,1.8-1.3l-1.8-2.4L29,62
					C30.1,61.7,29.4,59.5,28.4,59.8"/>
				<path id="XMLID_70_" style="fill:#E25D25;" d="M-18.2,58.5c-0.3-0.2-1.3-0.2-1.6,0c-1.4,1.1-2.9,4.1-3.8,6.6
					c-0.2,0.7,2.2,0.7,2.5,0c0.6-1.6,1.3-3,2.2-4.5c0.9,1.5,1.6,2.9,2.2,4.5c0.2,0.7,2.7,0.7,2.5,0C-15.3,62.6-16.8,59.6-18.2,58.5"
					/>
				<path id="XMLID_69_" style="fill:#E25D25;" d="M25.1-28.2c-0.3-0.2-1.3-0.2-1.6,0c-1.4,1.1-2.9,4.1-3.8,6.6
					c-0.2,0.7,2.2,0.7,2.5,0c0.6-1.6,1.3-3,2.2-4.5c0.9,1.5,1.6,2.9,2.2,4.5c0.2,0.7,2.7,0.7,2.5,0C28-24,26.5-27,25.1-28.2"/>
			</g>
			<g id="XMLID_57_" style="clip-path:url(#SVGID_2_);">
				<rect id="XMLID_67_" x="-82" y="81.6" style="fill:none;" width="125.9" height="125.9"/>
				<path id="XMLID_66_" style="fill:#E25D25;" d="M-61.6,141c-0.3-0.2-1.3-0.2-1.6,0c-1.4,1.1-2.9,4.1-3.8,6.6
					c-0.2,0.7,2.2,0.7,2.5,0c0.6-1.6,1.3-3,2.2-4.5c0.9,1.5,1.6,2.9,2.2,4.5c0.2,0.7,2.7,0.7,2.5,0C-58.7,145.2-60.2,142.2-61.6,141
					"/>
				<path id="XMLID_65_" style="fill:#E25D25;" d="M-20.5,106c2.2-1.2,3.8-3.6,5.1-6.6c0.6-1.6-1.6-4.2-2.4-2.8
					c-1.4,2.4-2.6,3.6-4.6,4.7C-23.8,102.1-22,106.9-20.5,106"/>
				<path id="XMLID_64_" style="fill:#E25D25;" d="M-58.3,99.1l-2.9,0.9v-3c0-1.1-2.3-1.1-2.3,0v3l-2.9-0.9c-1-0.3-1.7,1.8-0.7,2.1
					l2.9,0.9l-1.8,2.4c-0.6,0.9,1.2,2.2,1.8,1.3l1.8-2.4l1.8,2.4c0.6,0.9,2.5-0.5,1.8-1.3l-1.8-2.4l2.9-0.9
					C-56.6,100.9-57.3,98.7-58.3,99.1"/>
				<path id="XMLID_63_" style="fill:#E25D25;" d="M-63.8,192.7c2.2-1.2,3.8-3.6,5.1-6.6c0.6-1.6-1.6-4.2-2.4-2.8
					c-1.4,2.4-2.6,3.6-4.6,4.7C-67.1,188.8-65.3,193.6-63.8,192.7"/>
				<path id="XMLID_62_" style="fill:#E25D25;" d="M22.9,149.4c2.2-1.2,3.8-3.6,5.1-6.6c0.6-1.6-1.6-4.2-2.4-2.8
					c-1.4,2.4-2.6,3.6-4.6,4.7C19.5,145.5,21.4,150.2,22.9,149.4"/>
				<path id="XMLID_61_" style="fill:#E25D25;" d="M-14.9,142.4l-2.9,0.9v-3c0-1.1-2.3-1.1-2.3,0v3l-2.9-0.9c-1-0.3-1.7,1.8-0.7,2.1
					l2.9,0.9l-1.8,2.4c-0.6,0.9,1.2,2.2,1.8,1.3l1.8-2.4l1.8,2.4c0.6,0.9,2.5-0.5,1.8-1.3l-1.8-2.4l2.9-0.9
					C-13.2,144.2-13.9,142.1-14.9,142.4"/>
				<path id="XMLID_60_" style="fill:#E25D25;" d="M28.4,185.7l-2.9,0.9v-3c0-1.1-2.3-1.1-2.3,0v3l-2.9-0.9c-1-0.3-1.7,1.8-0.7,2.1
					l2.9,0.9l-1.8,2.4c-0.6,0.9,1.2,2.2,1.8,1.3l1.8-2.4l1.8,2.4c0.6,0.9,2.5-0.5,1.8-1.3l-1.8-2.4l2.9-0.9
					C30.1,187.5,29.4,185.4,28.4,185.7"/>
				<path id="XMLID_59_" style="fill:#E25D25;" d="M-18.2,184.4c-0.3-0.2-1.3-0.2-1.6,0c-1.4,1.1-2.9,4.1-3.8,6.6
					c-0.2,0.7,2.2,0.7,2.5,0c0.6-1.6,1.3-3,2.2-4.5c0.9,1.5,1.6,2.9,2.2,4.5c0.2,0.7,2.7,0.7,2.5,0
					C-15.3,188.5-16.8,185.5-18.2,184.4"/>
				<path id="XMLID_58_" style="fill:#E25D25;" d="M25.1,97.7c-0.3-0.2-1.3-0.2-1.6,0c-1.4,1.1-2.9,4.1-3.8,6.6
					c-0.2,0.7,2.2,0.7,2.5,0c0.6-1.6,1.3-3,2.2-4.5c0.9,1.5,1.6,2.9,2.2,4.5c0.2,0.7,2.7,0.7,2.5,0C28,101.8,26.5,98.8,25.1,97.7"/>
			</g>
			<g id="XMLID_46_" style="clip-path:url(#SVGID_2_);">
				<rect id="XMLID_56_" x="-82" y="207.5" style="fill:none;" width="125.9" height="125.9"/>
				<path id="XMLID_55_" style="fill:#E25D25;" d="M-61.6,266.9c-0.3-0.2-1.3-0.2-1.6,0c-1.4,1.1-2.9,4.1-3.8,6.6
					c-0.2,0.7,2.2,0.7,2.5,0c0.6-1.6,1.3-3,2.2-4.5c0.9,1.5,1.6,2.9,2.2,4.5c0.2,0.7,2.7,0.7,2.5,0C-58.7,271-60.2,268-61.6,266.9"
					/>
				<path id="XMLID_54_" style="fill:#E25D25;" d="M-20.5,231.9c2.2-1.2,3.8-3.6,5.1-6.6c0.6-1.6-1.6-4.2-2.4-2.8
					c-1.4,2.4-2.6,3.6-4.6,4.7C-23.8,228-22,232.8-20.5,231.9"/>
				<path id="XMLID_53_" style="fill:#E25D25;" d="M-58.3,224.9l-2.9,0.9v-3c0-1.1-2.3-1.1-2.3,0v3l-2.9-0.9c-1-0.3-1.7,1.8-0.7,2.1
					l2.9,0.9l-1.8,2.4c-0.6,0.9,1.2,2.2,1.8,1.3l1.8-2.4l1.8,2.4c0.6,0.9,2.5-0.5,1.8-1.3l-1.8-2.4l2.9-0.9
					C-56.6,226.7-57.3,224.6-58.3,224.9"/>
				<path id="XMLID_52_" style="fill:#E25D25;" d="M-63.8,318.6c2.2-1.2,3.8-3.6,5.1-6.6c0.6-1.6-1.6-4.2-2.4-2.8
					c-1.4,2.4-2.6,3.6-4.6,4.7C-67.1,314.7-65.3,319.4-63.8,318.6"/>
				<path id="XMLID_51_" style="fill:#E25D25;" d="M22.9,275.3c2.2-1.2,3.8-3.6,5.1-6.6c0.6-1.6-1.6-4.2-2.4-2.8
					c-1.4,2.4-2.6,3.6-4.6,4.7C19.5,271.4,21.4,276.1,22.9,275.3"/>
				<path id="XMLID_50_" style="fill:#E25D25;" d="M-14.9,268.3l-2.9,0.9v-3c0-1.1-2.3-1.1-2.3,0v3l-2.9-0.9c-1-0.3-1.7,1.8-0.7,2.1
					l2.9,0.9l-1.8,2.4c-0.6,0.9,1.2,2.2,1.8,1.3l1.8-2.4l1.8,2.4c0.6,0.9,2.5-0.5,1.8-1.3l-1.8-2.4l2.9-0.9
					C-13.2,270.1-13.9,267.9-14.9,268.3"/>
				<path id="XMLID_49_" style="fill:#E25D25;" d="M28.4,311.6l-2.9,0.9v-3c0-1.1-2.3-1.1-2.3,0v3l-2.9-0.9c-1-0.3-1.7,1.8-0.7,2.1
					l2.9,0.9l-1.8,2.4c-0.6,0.9,1.2,2.2,1.8,1.3l1.8-2.4l1.8,2.4c0.6,0.9,2.5-0.5,1.8-1.3l-1.8-2.4l2.9-0.9
					C30.1,313.4,29.4,311.3,28.4,311.6"/>
				<path id="XMLID_48_" style="fill:#E25D25;" d="M-18.2,310.2c-0.3-0.2-1.3-0.2-1.6,0c-1.4,1.1-2.9,4.1-3.8,6.6
					c-0.2,0.7,2.2,0.7,2.5,0c0.6-1.6,1.3-3,2.2-4.5c0.9,1.5,1.6,2.9,2.2,4.5c0.2,0.7,2.7,0.7,2.5,0
					C-15.3,314.4-16.8,311.4-18.2,310.2"/>
				<path id="XMLID_47_" style="fill:#E25D25;" d="M25.1,223.6c-0.3-0.2-1.3-0.2-1.6,0c-1.4,1.1-2.9,4.1-3.8,6.6
					c-0.2,0.7,2.2,0.7,2.5,0c0.6-1.6,1.3-3,2.2-4.5c0.9,1.5,1.6,2.9,2.2,4.5c0.2,0.7,2.7,0.7,2.5,0C28,227.7,26.5,224.7,25.1,223.6"
					/>
			</g>
			<g id="XMLID_35_" style="clip-path:url(#SVGID_2_);">
				<rect id="XMLID_45_" x="-82" y="333.3" style="fill:none;" width="125.9" height="125.9"/>
				<path id="XMLID_44_" style="fill:#E25D25;" d="M-61.6,392.8c-0.3-0.2-1.3-0.2-1.6,0c-1.4,1.1-2.9,4.1-3.8,6.6
					c-0.2,0.7,2.2,0.7,2.5,0c0.6-1.6,1.3-3,2.2-4.5c0.9,1.5,1.6,2.9,2.2,4.5c0.2,0.7,2.7,0.7,2.5,0
					C-58.7,396.9-60.2,393.9-61.6,392.8"/>
				<path id="XMLID_43_" style="fill:#E25D25;" d="M-20.5,357.8c2.2-1.2,3.8-3.6,5.1-6.6c0.6-1.6-1.6-4.2-2.4-2.8
					c-1.4,2.4-2.6,3.6-4.6,4.7C-23.8,353.9-22,358.6-20.5,357.8"/>
				<path id="XMLID_42_" style="fill:#E25D25;" d="M-58.3,350.8l-2.9,0.9v-3c0-1.1-2.3-1.1-2.3,0v3l-2.9-0.9c-1-0.3-1.7,1.8-0.7,2.1
					l2.9,0.9l-1.8,2.4c-0.6,0.9,1.2,2.2,1.8,1.3l1.8-2.4l1.8,2.4c0.6,0.9,2.5-0.5,1.8-1.3l-1.8-2.4l2.9-0.9
					C-56.6,352.6-57.3,350.5-58.3,350.8"/>
				<path id="XMLID_41_" style="fill:#E25D25;" d="M-63.8,444.5c2.2-1.2,3.8-3.6,5.1-6.6c0.6-1.6-1.6-4.2-2.4-2.8
					c-1.4,2.4-2.6,3.6-4.6,4.7C-67.1,440.6-65.3,445.3-63.8,444.5"/>
				<path id="XMLID_40_" style="fill:#E25D25;" d="M22.9,401.1c2.2-1.2,3.8-3.6,5.1-6.6c0.6-1.6-1.6-4.2-2.4-2.8
					c-1.4,2.4-2.6,3.6-4.6,4.7C19.5,397.2,21.4,402,22.9,401.1"/>
				<path id="XMLID_39_" style="fill:#E25D25;" d="M-14.9,394.1l-2.9,0.9v-3c0-1.1-2.3-1.1-2.3,0v3l-2.9-0.9c-1-0.3-1.7,1.8-0.7,2.1
					l2.9,0.9l-1.8,2.4c-0.6,0.9,1.2,2.2,1.8,1.3l1.8-2.4l1.8,2.4c0.6,0.9,2.5-0.5,1.8-1.3l-1.8-2.4l2.9-0.9
					C-13.2,396-13.9,393.8-14.9,394.1"/>
				<path id="XMLID_38_" style="fill:#E25D25;" d="M28.4,437.5l-2.9,0.9v-3c0-1.1-2.3-1.1-2.3,0v3l-2.9-0.9c-1-0.3-1.7,1.8-0.7,2.1
					l2.9,0.9l-1.8,2.4c-0.6,0.9,1.2,2.2,1.8,1.3l1.8-2.4l1.8,2.4c0.6,0.9,2.5-0.5,1.8-1.3l-1.8-2.4l2.9-0.9
					C30.1,439.3,29.4,437.1,28.4,437.5"/>
				<path id="XMLID_37_" style="fill:#E25D25;" d="M-18.2,436.1c-0.3-0.2-1.3-0.2-1.6,0c-1.4,1.1-2.9,4.1-3.8,6.6
					c-0.2,0.7,2.2,0.7,2.5,0c0.6-1.6,1.3-3,2.2-4.5c0.9,1.5,1.6,2.9,2.2,4.5c0.2,0.7,2.7,0.7,2.5,0
					C-15.3,440.3-16.8,437.3-18.2,436.1"/>
				<path id="XMLID_36_" style="fill:#E25D25;" d="M25.1,349.4c-0.3-0.2-1.3-0.2-1.6,0c-1.4,1.1-2.9,4.1-3.8,6.6
					c-0.2,0.7,2.2,0.7,2.5,0c0.6-1.6,1.3-3,2.2-4.5c0.9,1.5,1.6,2.9,2.2,4.5c0.2,0.7,2.7,0.7,2.5,0C28,353.6,26.5,350.6,25.1,349.4"
					/>
			</g>
			<g id="XMLID_24_" style="clip-path:url(#SVGID_2_);">
				<rect id="XMLID_34_" x="-82" y="459.2" style="fill:none;" width="125.9" height="125.9"/>
				<path id="XMLID_33_" style="fill:#E25D25;" d="M-61.6,518.7c-0.3-0.2-1.3-0.2-1.6,0c-1.4,1.1-2.9,4.1-3.8,6.6
					c-0.2,0.7,2.2,0.7,2.5,0c0.6-1.6,1.3-3,2.2-4.5c0.9,1.5,1.6,2.9,2.2,4.5c0.2,0.7,2.7,0.7,2.5,0
					C-58.7,522.8-60.2,519.8-61.6,518.7"/>
				<path id="XMLID_32_" style="fill:#E25D25;" d="M-20.5,483.7c2.2-1.2,3.8-3.6,5.1-6.6c0.6-1.6-1.6-4.2-2.4-2.8
					c-1.4,2.4-2.6,3.6-4.6,4.7C-23.8,479.8-22,484.5-20.5,483.7"/>
				<path id="XMLID_31_" style="fill:#E25D25;" d="M-58.3,476.7l-2.9,0.9v-3c0-1.1-2.3-1.1-2.3,0v3l-2.9-0.9c-1-0.3-1.7,1.8-0.7,2.1
					l2.9,0.9l-1.8,2.4c-0.6,0.9,1.2,2.2,1.8,1.3l1.8-2.4l1.8,2.4c0.6,0.9,2.5-0.5,1.8-1.3l-1.8-2.4l2.9-0.9
					C-56.6,478.5-57.3,476.4-58.3,476.7"/>
				<path id="XMLID_30_" style="fill:#E25D25;" d="M-63.8,570.3c2.2-1.2,3.8-3.6,5.1-6.6c0.6-1.6-1.6-4.2-2.4-2.8
					c-1.4,2.4-2.6,3.6-4.6,4.7C-67.1,566.4-65.3,571.2-63.8,570.3"/>
				<path id="XMLID_29_" style="fill:#E25D25;" d="M22.9,527c2.2-1.2,3.8-3.6,5.1-6.6c0.6-1.6-1.6-4.2-2.4-2.8
					c-1.4,2.4-2.6,3.6-4.6,4.7C19.5,523.1,21.4,527.9,22.9,527"/>
				<path id="XMLID_28_" style="fill:#E25D25;" d="M-14.9,520l-2.9,0.9v-3c0-1.1-2.3-1.1-2.3,0v3l-2.9-0.9c-1-0.3-1.7,1.8-0.7,2.1
					l2.9,0.9l-1.8,2.4c-0.6,0.9,1.2,2.2,1.8,1.3l1.8-2.4l1.8,2.4c0.6,0.9,2.5-0.5,1.8-1.3l-1.8-2.4l2.9-0.9
					C-13.2,521.8-13.9,519.7-14.9,520"/>
				<path id="XMLID_27_" style="fill:#E25D25;" d="M28.4,563.4l-2.9,0.9v-3c0-1.1-2.3-1.1-2.3,0v3l-2.9-0.9c-1-0.3-1.7,1.8-0.7,2.1
					l2.9,0.9l-1.8,2.4c-0.6,0.9,1.2,2.2,1.8,1.3l1.8-2.4l1.8,2.4c0.6,0.9,2.5-0.5,1.8-1.3l-1.8-2.4l2.9-0.9
					C30.1,565.2,29.4,563,28.4,563.4"/>
				<path id="XMLID_26_" style="fill:#E25D25;" d="M-18.2,562c-0.3-0.2-1.3-0.2-1.6,0c-1.4,1.1-2.9,4.1-3.8,6.6
					c-0.2,0.7,2.2,0.7,2.5,0c0.6-1.6,1.3-3,2.2-4.5c0.9,1.5,1.6,2.9,2.2,4.5c0.2,0.7,2.7,0.7,2.5,0C-15.3,566.1-16.8,563.1-18.2,562
					"/>
				<path id="XMLID_25_" style="fill:#E25D25;" d="M25.1,475.3c-0.3-0.2-1.3-0.2-1.6,0c-1.4,1.1-2.9,4.1-3.8,6.6
					c-0.2,0.7,2.2,0.7,2.5,0c0.6-1.6,1.3-3,2.2-4.5c0.9,1.5,1.6,2.9,2.2,4.5c0.2,0.7,2.7,0.7,2.5,0C28,479.5,26.5,476.5,25.1,475.3"
					/>
			</g>
			<g id="XMLID_13_" style="clip-path:url(#SVGID_2_);">
				<rect id="XMLID_23_" x="-82" y="585.1" style="fill:none;" width="125.9" height="125.9"/>
				<path id="XMLID_22_" style="fill:#E25D25;" d="M-61.6,644.5c-0.3-0.2-1.3-0.2-1.6,0c-1.4,1.1-2.9,4.1-3.8,6.6
					c-0.2,0.7,2.2,0.7,2.5,0c0.6-1.6,1.3-3,2.2-4.5c0.9,1.5,1.6,2.9,2.2,4.5c0.2,0.7,2.7,0.7,2.5,0
					C-58.7,648.7-60.2,645.7-61.6,644.5"/>
				<path id="XMLID_21_" style="fill:#E25D25;" d="M-20.5,609.6c2.2-1.2,3.8-3.6,5.1-6.6c0.6-1.6-1.6-4.2-2.4-2.8
					c-1.4,2.4-2.6,3.6-4.6,4.7C-23.8,605.7-22,610.4-20.5,609.6"/>
				<path id="XMLID_20_" style="fill:#E25D25;" d="M-58.3,602.6l-2.9,0.9v-3c0-1.1-2.3-1.1-2.3,0v3l-2.9-0.9c-1-0.3-1.7,1.8-0.7,2.1
					l2.9,0.9l-1.8,2.4c-0.6,0.9,1.2,2.2,1.8,1.3l1.8-2.4l1.8,2.4c0.6,0.9,2.5-0.5,1.8-1.3l-1.8-2.4l2.9-0.9
					C-56.6,604.4-57.3,602.2-58.3,602.6"/>
				<path id="XMLID_19_" style="fill:#E25D25;" d="M-63.8,696.2c2.2-1.2,3.8-3.6,5.1-6.6c0.6-1.6-1.6-4.2-2.4-2.8
					c-1.4,2.4-2.6,3.6-4.6,4.7C-67.1,692.3-65.3,697.1-63.8,696.2"/>
				<path id="XMLID_18_" style="fill:#E25D25;" d="M22.9,652.9c2.2-1.2,3.8-3.6,5.1-6.6c0.6-1.6-1.6-4.2-2.4-2.8
					c-1.4,2.4-2.6,3.6-4.6,4.7C19.5,649,21.4,653.7,22.9,652.9"/>
				<path id="XMLID_17_" style="fill:#E25D25;" d="M-14.9,645.9l-2.9,0.9v-3c0-1.1-2.3-1.1-2.3,0v3l-2.9-0.9c-1-0.3-1.7,1.8-0.7,2.1
					l2.9,0.9l-1.8,2.4c-0.6,0.9,1.2,2.2,1.8,1.3l1.8-2.4l1.8,2.4c0.6,0.9,2.5-0.5,1.8-1.3l-1.8-2.4l2.9-0.9
					C-13.2,647.7-13.9,645.6-14.9,645.9"/>
				<path id="XMLID_16_" style="fill:#E25D25;" d="M28.4,689.2l-2.9,0.9v-3c0-1.1-2.3-1.1-2.3,0v3l-2.9-0.9c-1-0.3-1.7,1.8-0.7,2.1
					l2.9,0.9l-1.8,2.4c-0.6,0.9,1.2,2.2,1.8,1.3l1.8-2.4l1.8,2.4c0.6,0.9,2.5-0.5,1.8-1.3l-1.8-2.4l2.9-0.9
					C30.1,691,29.4,688.9,28.4,689.2"/>
				<path id="XMLID_15_" style="fill:#E25D25;" d="M-18.2,687.9c-0.3-0.2-1.3-0.2-1.6,0c-1.4,1.1-2.9,4.1-3.8,6.6
					c-0.2,0.7,2.2,0.7,2.5,0c0.6-1.6,1.3-3,2.2-4.5c0.9,1.5,1.6,2.9,2.2,4.5c0.2,0.7,2.7,0.7,2.5,0C-15.3,692-16.8,689-18.2,687.9"
					/>
				<path id="XMLID_14_" style="fill:#E25D25;" d="M25.1,601.2c-0.3-0.2-1.3-0.2-1.6,0c-1.4,1.1-2.9,4.1-3.8,6.6
					c-0.2,0.7,2.2,0.7,2.5,0c0.6-1.6,1.3-3,2.2-4.5c0.9,1.5,1.6,2.9,2.2,4.5c0.2,0.7,2.7,0.7,2.5,0C28,605.3,26.5,602.3,25.1,601.2"
					/>
			</g>
		</g>
	</g>
</g>
</svg>
