<?xml version="1.0" encoding="utf-8"?>
<!-- Generator: Adobe Illustrator 19.0.0, SVG Export Plug-In . SVG Version: 6.00 Build 0)  -->
<svg version="1.1" id="Layer_1" xmlns="http://www.w3.org/2000/svg" xmlns:xlink="http://www.w3.org/1999/xlink" x="0px" y="0px"
	 viewBox="-288 221.4 382.9 120" enable-background="new -288 221.4 382.9 120" xml:space="preserve">
<path fill="#E25D25" d="M-22.1,287.7c-1.1,0.4-1.6,0-1.6-1.2v-1.2v-13.5c0-1.3-3.8-1.3-3.8,0v7.4h-8.6v-8c0-1.5-3.7,0.1-3.7,1.6
	v17.4c0,1.3,3.7,1.3,3.7,0v-7.8h8.6v2.3v2.3c0,4.5,2.7,4.6,5.4,3.6C-20.8,290-20.8,287.1-22.1,287.7"/>
<path fill="#E25D25" d="M0.2,288c-3.5,0-5.5-2.6-5.5-6.9c0-4.4,2-6.9,5.5-6.9c3.4,0,5.5,2.6,5.5,6.9C5.6,285.4,3.6,288,0.2,288
	 M0.2,270.9c-5.9,0-9.3,3.8-9.3,10.2s3.5,10.2,9.3,10.2c5.9,0,9.3-3.8,9.3-10.2S6,270.9,0.2,270.9"/>
<path fill="#E25D25" d="M30.3,281.2c-0.9,0-2-0.1-3.2-0.4v-6.3c0.9-0.3,2-0.4,3-0.4c2.9,0,4.4,1.2,4.4,3.5
	C34.4,279.7,33.4,281.2,30.3,281.2 M38.2,277.3c0-4.1-3.1-6.4-8.5-6.4c-4.2,0-6.3,0.9-6.3,1.7v17.7c0,1.3,3.7,1.3,3.7,0v-6.5
	c1.5,0.8,2.5,2.3,3.4,3.8c1.1,1.9,2.2,3.6,4.2,3.6c0.5,0,1.1-0.1,1.8-0.4c1.2-0.5,1.2-3.9,0-3.4c-0.3,0.1-0.6,0.2-0.9,0.2
	c-1.1,0-1.9-1-2.6-2.1c-0.3-0.5-0.7-1.1-1.2-1.7C36.1,283.6,38.2,281.5,38.2,277.3"/>
<path fill="#E25D25" d="M66.8,271.1H51c-1.5,0,0.1,3.3,1.6,3.3h4.5v15.9c0,1.3,4,1.3,4,0v-15.9h5.7C68,274.4,68,271.1,66.8,271.1"/>
<path fill="#E25D25" d="M83.1,282.6c0.8-2.1,1.6-4.1,2.6-6.2c1,2.1,1.8,4.1,2.5,6.2H83.1z M86.1,271c-0.2-0.2-0.6-0.2-0.9,0
	c-2,2.1-6.4,12.1-8.8,19.3c-0.4,1.3,3.8,1.3,4.2,0c0.5-1.6,0.9-3.1,1.5-4.5h7.2c0.5,1.5,0.9,3,1.4,4.5c0.4,1.3,4.7,1.3,4.2,0
	C92.5,283.1,88.1,273.2,86.1,271"/>
<g id="XMLID_186_">
	<path id="XMLID_214_" fill="#E25D25" d="M-170.5,273.1c0-0.6,0.5-1.2,1.4-1.7c0.9-0.5,1.6-0.6,2-0.4c0.1,0.1,0.2,0.3,0.2,0.5v18.9
		c0,0.4-0.3,0.7-0.8,0.8c-0.6,0.1-1.1,0.2-1.8,0.1c-0.6-0.1-1-0.3-1.1-0.5c-1.5-3.2-3-5.8-4.5-7.8c-1.4-2.1-3.1-4.2-5.2-6.3v13.8
		c0,0.4-0.3,0.7-0.9,0.8c-0.6,0.2-1.2,0.2-1.8,0c-0.6-0.2-0.9-0.4-0.9-0.8v-18.4c0-0.6,0.5-0.9,1.5-1s1.7,0,2,0.4
		c4,3.8,7.2,7.8,9.8,12.1v-10.5H-170.5z"/>
	<path id="XMLID_216_" fill="#E25D25" d="M-143.9,291.4c-2.9,0-5.2-0.9-6.8-2.7c-1.6-1.8-2.5-4.3-2.5-7.4c0-3.2,0.8-5.7,2.4-7.5
		c1.6-1.8,3.9-2.7,6.9-2.7c2.9,0,5.2,0.9,6.8,2.7c1.6,1.8,2.5,4.3,2.5,7.5c0,3.2-0.8,5.7-2.5,7.4
		C-138.8,290.4-141,291.4-143.9,291.4z M-139.9,276.2c-1-1.2-2.3-1.8-4-1.8s-3.1,0.6-4,1.8c-1,1.2-1.4,2.9-1.4,5.1
		c0,2.2,0.5,3.9,1.4,5.1c1,1.2,2.3,1.8,4,1.8s3.1-0.6,4-1.8c1-1.2,1.4-2.9,1.4-5.1C-138.5,279.1-139,277.4-139.9,276.2z"/>
	<path id="XMLID_219_" fill="#E25D25" d="M-116.9,278.9c0.5,0.2,0.9,0.4,1.3,0.4c0.4,0.1,0.9,0.2,1.7,0.4c0.8,0.1,1.4,0.3,1.9,0.4
		s1,0.3,1.7,0.6c0.7,0.3,1.2,0.6,1.5,1c0.7,0.7,1.4,2.1,1.4,3.8c0,1.9-0.7,3.4-2,4.4c-1.4,1-3.1,1.5-5.2,1.5s-4.1-0.5-6.1-1.5
		c-0.5-0.2-0.8-0.9-0.9-1.9c-0.1-0.9,0.1-1.4,0.5-1.6c0.1,0,0.2,0,0.4,0.1c2.2,1.1,4.3,1.7,6,1.7c2.3,0,3.7-1,3.7-2.7
		c0-0.8-0.4-1.4-0.9-1.8c-0.2-0.2-0.6-0.4-1-0.5c-0.5-0.2-0.9-0.3-1.2-0.4c-0.3-0.1-0.8-0.2-1.4-0.3c-0.8-0.2-1.4-0.3-1.8-0.4
		c-0.4-0.1-1-0.3-1.6-0.6c-0.7-0.3-1.2-0.6-1.5-1c-0.9-0.6-1.6-1.8-1.6-3.4c0-1.9,0.7-3.4,2-4.4s3-1.5,5-1.5c2.1,0,4.1,0.5,6,1.5
		c0.5,0.3,0.8,0.9,0.9,1.9c0.1,0.9-0.1,1.4-0.4,1.5c-0.1,0-0.2,0-0.4-0.1c-2.3-1.2-4.4-1.8-6.1-1.8c-2,0-3.3,1-3.3,2.7
		C-118.3,277.8-117.9,278.4-116.9,278.9z"/>
	<path id="XMLID_221_" fill="#E25D25" d="M-90,278.9c0.5,0.2,0.9,0.4,1.3,0.4c0.4,0.1,0.9,0.2,1.7,0.4c0.8,0.1,1.4,0.3,1.9,0.4
		s1,0.3,1.7,0.6c0.7,0.3,1.2,0.6,1.5,1c0.7,0.7,1.4,2.1,1.4,3.8c0,1.9-0.7,3.4-2,4.4c-1.4,1-3.1,1.5-5.2,1.5s-4.1-0.5-6.1-1.5
		c-0.5-0.2-0.8-0.9-0.9-1.9c-0.1-0.9,0.1-1.4,0.5-1.6c0.1,0,0.2,0,0.4,0.1c2.2,1.1,4.3,1.7,6,1.7c2.3,0,3.7-1,3.7-2.7
		c0-0.8-0.4-1.4-0.9-1.8c-0.2-0.2-0.6-0.4-1-0.5c-0.5-0.2-0.9-0.3-1.2-0.4c-0.3-0.1-0.8-0.2-1.4-0.3c-0.8-0.2-1.4-0.3-1.8-0.4
		c-0.4-0.1-1-0.3-1.6-0.6c-0.7-0.3-1.2-0.6-1.5-1c-0.9-0.6-1.5-1.8-1.5-3.4c0-1.9,0.7-3.4,2-4.4s3-1.5,5-1.5c2.1,0,4.1,0.5,6,1.5
		c0.5,0.3,0.8,0.9,0.9,1.9c0.1,0.9-0.1,1.4-0.4,1.5c-0.1,0-0.2,0-0.4-0.1c-2.3-1.2-4.4-1.8-6.1-1.8c-2,0-3.3,1-3.3,2.7
		C-91.4,277.8-91,278.4-90,278.9z"/>
	<path id="XMLID_223_" fill="#E25D25" d="M-50.8,291.3c-1,0.2-1.9,0.1-2.7-0.2c-0.4-0.2-0.6-0.4-0.7-0.6c-0.3-1-0.8-2.5-1.4-4.5
		h-7.2c-0.1,0.4-0.3,0.9-0.5,1.4s-0.3,1-0.5,1.7c-0.2,0.6-0.3,1.1-0.5,1.5c-0.2,0.5-0.8,0.9-2,0.9c-1.1,0.1-1.8-0.1-2.1-0.5
		c-0.1-0.1-0.1-0.3-0.1-0.5c1.2-3.7,2.7-7.5,4.6-11.6c1.8-4.1,3.2-6.6,4.2-7.6c0.2-0.2,0.6-0.2,0.9,0c1,1,2.4,3.6,4.2,7.6
		s3.4,7.9,4.6,11.6C-49.8,290.9-50.1,291.2-50.8,291.3z M-56.6,282.8c-0.7-2.1-1.6-4.1-2.5-6.1c-0.9,1.9-1.7,3.9-2.5,6.1H-56.6z"/>
</g>
<path id="XMLID_30_" fill="#E25D25" d="M-206.5,271.4c-2.8,4.8-5.3,7.2-9.2,9.4c-3,1.7,0.7,11.2,3.7,9.5c4.4-2.5,7.7-7.1,10.3-13.2
	C-200.5,274-204.9,268.7-206.5,271.4"/>
<path id="XMLID_29_" fill="#E25D25" d="M-236.4,276.3l-5.9,1.8v-6c0-2.2-4.6-2.2-4.6,0v6l-5.9-1.8c-2-0.6-3.4,3.6-1.3,4.3l5.8,1.9
	l-3.6,4.9c-1.3,1.7,2.4,4.5,3.7,2.7l3.6-4.9l3.6,4.9c1.3,1.8,4.9-0.9,3.7-2.7l-3.6-4.9l5.9-1.9C-232.9,280-234.3,275.7-236.4,276.3"
	/>
<path id="XMLID_28_" fill="#E25D25" d="M-277.1,273.6c-0.7-0.4-2.6-0.4-3.2,0c-2.9,2.3-5.8,8.3-7.7,13.3c-0.5,1.3,4.4,1.3,4.9,0
	c1.2-3.1,2.5-5.9,4.3-9c1.8,3,3.2,5.8,4.4,9c0.5,1.3,5.4,1.3,4.9,0C-271.3,281.9-274.3,275.9-277.1,273.6"/>
</svg>
