<svg class="center icones" width="80" height="72" viewBox="0 0 80 72" fill="none" xmlns="http://www.w3.org/2000/svg">
              <path d="M21.0783 29.8435C22.4614 29.8435 23.5826 28.7223 23.5826 27.3392C23.5826 25.9561 22.4614 24.8348 21.0783 24.8348C19.6951 24.8348 18.5739 25.9561 18.5739 27.3392C18.5739 28.7223 19.6951 29.8435 21.0783 29.8435Z" fill="#E25D25"/>
              <path d="M33.6 29.8435C34.9831 29.8435 36.1043 28.7223 36.1043 27.3392C36.1043 25.9561 34.9831 24.8348 33.6 24.8348C32.2169 24.8348 31.0957 25.9561 31.0957 27.3392C31.0957 28.7223 32.2169 29.8435 33.6 29.8435Z" fill="#E25D25"/>
              <path d="M2.29565 22.3304H6.67826C6.46956 23.3739 6.46956 24.2087 6.46956 25.2522C6.46956 36.7304 15.8609 46.1217 27.3391 46.1217C38.8174 46.1217 48.2087 36.7304 48.2087 25.2522C48.2087 24.2087 48.2087 23.3739 48 22.3304H52.3826C53.6348 22.3304 54.6783 21.287 54.6783 20.0348C54.6783 18.7826 53.6348 17.7391 52.3826 17.7391H46.7478C46.1217 11.4783 42.5739 6.26087 37.3565 3.13043C34.4348 1.04348 30.887 0 26.9217 0C22.9565 0 19.4087 1.04348 16.2783 3.13043C11.2696 6.26087 7.72174 11.4783 7.09565 17.7391H2.29565C1.04348 17.7391 0 18.7826 0 20.0348C0 21.287 1.04348 22.3304 2.29565 22.3304ZM26.9217 4.5913C34.6435 4.5913 41.113 10.2261 42.1565 17.7391H27.3391H18.3652H11.687C12.7304 10.2261 19.2 4.5913 26.9217 4.5913ZM27.3391 41.9478C18.1565 41.9478 10.6435 34.4348 10.6435 25.2522C10.6435 24.6261 10.6435 24 10.8522 23.3739C11.687 22.9565 12.313 22.7478 12.9391 22.3304H43.8261C44.0348 23.3739 44.0348 24.2087 44.0348 25.2522C44.0348 34.4348 36.5217 41.9478 27.3391 41.9478Z" fill="#E25D25"/>
              <path d="M39.4435 45.913C38.8174 45.7044 38.1913 45.9131 37.5652 46.3304C37.1478 46.7478 36.7304 47.3739 36.7304 48C36.7304 49.8783 36.1043 51.5478 35.0609 53.0087C33.3913 55.513 30.4696 57.1826 27.3391 57.1826C24.2087 57.1826 21.287 55.513 19.6174 53.0087C18.5739 51.5478 17.9478 49.8783 17.9478 48C17.9478 47.3739 17.7391 46.7478 17.113 46.3304C16.6956 45.9131 16.0696 45.7044 15.4435 45.913C10.4348 46.5391 6.05217 49.2522 3.33913 53.2174C1.25217 56.1391 0.208694 59.687 0.208694 63.2348V69.4957C0.208694 70.7478 1.25217 71.7913 2.50435 71.7913H51.7565C53.0087 71.7913 54.0522 70.7478 54.0522 69.4957V63.2348C54.0522 59.4783 52.8 55.9304 50.9217 53.2174C48 49.4609 44.0348 46.7478 39.4435 45.913ZM49.2522 67.2H4.5913V63.2348C4.5913 59.2696 6.46956 55.5131 9.3913 53.2174C10.6435 52.1739 12.1043 51.3391 13.5652 50.9217C13.7739 51.7565 13.9826 52.3826 14.1913 53.2174C16.2783 58.4348 21.287 61.9826 27.1304 61.9826C32.9739 61.9826 37.9826 58.4348 40.0696 53.2174C40.2783 52.5913 40.4869 51.9652 40.6956 51.1304C41.9478 51.5478 43.2 52.3826 44.2435 53.2174C47.1652 55.7217 49.0435 59.2696 49.0435 63.2348V67.2H49.2522Z" fill="#E25D25"/>
              <path d="M77.0087 25.8784C75.7565 25.8784 74.713 26.9219 74.713 28.174V42.3653C74.713 43.8262 73.6696 45.0784 72.4174 45.4958V27.9653C72.4174 26.7132 71.3739 25.6697 70.1217 25.6697C68.8696 25.6697 67.8261 26.7132 67.8261 27.9653V45.7045H65.3217V27.9653C65.3217 26.7132 64.2783 25.6697 63.0261 25.6697C61.7739 25.6697 60.7304 26.7132 60.7304 27.9653V45.4958C59.2696 45.0784 58.4348 43.8262 58.4348 42.1566V27.9653C58.4348 26.7132 57.3913 25.6697 56.1391 25.6697C54.887 25.6697 53.8435 26.7132 53.8435 27.9653V42.1566C53.8435 46.5392 57.3913 50.0871 61.7739 50.0871H63.0261H64.2783V69.2871C64.2783 70.5392 65.3217 71.5827 66.5739 71.5827C67.8261 71.5827 68.8696 70.5392 68.8696 69.2871V50.0871H70.1217H71.3739C75.7565 50.0871 79.3044 46.5392 79.3044 42.1566V27.9653C79.3044 26.9219 78.2609 25.8784 77.0087 25.8784Z" fill="#E25D25"/>
            </svg>